<?xml version="1.0" encoding="utf-8" standalone="no"?>
<!DOCTYPE svg PUBLIC "-//W3C//DTD SVG 1.1//EN"
  "http://www.w3.org/Graphics/SVG/1.1/DTD/svg11.dtd">
<!-- Created with matplotlib (https://matplotlib.org/) -->
<svg height="494.754375pt" version="1.1" viewBox="0 0 506.928125 494.754375" width="506.928125pt" xmlns="http://www.w3.org/2000/svg" xmlns:xlink="http://www.w3.org/1999/xlink">
 <metadata>
  <rdf:RDF xmlns:cc="http://creativecommons.org/ns#" xmlns:dc="http://purl.org/dc/elements/1.1/" xmlns:rdf="http://www.w3.org/1999/02/22-rdf-syntax-ns#">
   <cc:Work>
    <dc:type rdf:resource="http://purl.org/dc/dcmitype/StillImage"/>
    <dc:date>2020-12-30T02:32:45.306907</dc:date>
    <dc:format>image/svg+xml</dc:format>
    <dc:creator>
     <cc:Agent>
      <dc:title>Matplotlib v3.3.3, https://matplotlib.org/</dc:title>
     </cc:Agent>
    </dc:creator>
   </cc:Work>
  </rdf:RDF>
 </metadata>
 <defs>
  <style type="text/css">*{stroke-linecap:butt;stroke-linejoin:round;}</style>
 </defs>
 <g id="figure_1">
  <g id="patch_1">
   <path d="M 0 494.754375 
L 506.928125 494.754375 
L 506.928125 0 
L 0 0 
z
" style="fill:none;"/>
  </g>
  <g id="axes_1">
   <g id="patch_2">
    <path d="M 53.328125 457.198125 
L 499.728125 457.198125 
L 499.728125 22.318125 
L 53.328125 22.318125 
z
" style="fill:#ffffff;"/>
   </g>
   <g id="matplotlib.axis_1">
    <g id="xtick_1">
     <g id="line2d_1">
      <defs>
       <path d="M 0 0 
L 0 3.5 
" id="m57448e7ba3" style="stroke:#000000;stroke-width:0.8;"/>
      </defs>
      <g>
       <use style="stroke:#000000;stroke-width:0.8;" x="73.21281" xlink:href="#m57448e7ba3" y="457.198125"/>
      </g>
     </g>
     <g id="text_1">
      <!-- 0.0 -->
      <g transform="translate(65.261247 471.796562)scale(0.1 -0.1)">
       <defs>
        <path d="M 31.78125 66.40625 
Q 24.171875 66.40625 20.328125 58.90625 
Q 16.5 51.421875 16.5 36.375 
Q 16.5 21.390625 20.328125 13.890625 
Q 24.171875 6.390625 31.78125 6.390625 
Q 39.453125 6.390625 43.28125 13.890625 
Q 47.125 21.390625 47.125 36.375 
Q 47.125 51.421875 43.28125 58.90625 
Q 39.453125 66.40625 31.78125 66.40625 
z
M 31.78125 74.21875 
Q 44.046875 74.21875 50.515625 64.515625 
Q 56.984375 54.828125 56.984375 36.375 
Q 56.984375 17.96875 50.515625 8.265625 
Q 44.046875 -1.421875 31.78125 -1.421875 
Q 19.53125 -1.421875 13.0625 8.265625 
Q 6.59375 17.96875 6.59375 36.375 
Q 6.59375 54.828125 13.0625 64.515625 
Q 19.53125 74.21875 31.78125 74.21875 
z
" id="DejaVuSans-48"/>
        <path d="M 10.6875 12.40625 
L 21 12.40625 
L 21 0 
L 10.6875 0 
z
" id="DejaVuSans-46"/>
       </defs>
       <use xlink:href="#DejaVuSans-48"/>
       <use x="63.623047" xlink:href="#DejaVuSans-46"/>
       <use x="95.410156" xlink:href="#DejaVuSans-48"/>
      </g>
     </g>
    </g>
    <g id="xtick_2">
     <g id="line2d_2">
      <g>
       <use style="stroke:#000000;stroke-width:0.8;" x="154.457691" xlink:href="#m57448e7ba3" y="457.198125"/>
      </g>
     </g>
     <g id="text_2">
      <!-- 0.1 -->
      <g transform="translate(146.506128 471.796562)scale(0.1 -0.1)">
       <defs>
        <path d="M 12.40625 8.296875 
L 28.515625 8.296875 
L 28.515625 63.921875 
L 10.984375 60.40625 
L 10.984375 69.390625 
L 28.421875 72.90625 
L 38.28125 72.90625 
L 38.28125 8.296875 
L 54.390625 8.296875 
L 54.390625 0 
L 12.40625 0 
z
" id="DejaVuSans-49"/>
       </defs>
       <use xlink:href="#DejaVuSans-48"/>
       <use x="63.623047" xlink:href="#DejaVuSans-46"/>
       <use x="95.410156" xlink:href="#DejaVuSans-49"/>
      </g>
     </g>
    </g>
    <g id="xtick_3">
     <g id="line2d_3">
      <g>
       <use style="stroke:#000000;stroke-width:0.8;" x="235.702572" xlink:href="#m57448e7ba3" y="457.198125"/>
      </g>
     </g>
     <g id="text_3">
      <!-- 0.2 -->
      <g transform="translate(227.75101 471.796562)scale(0.1 -0.1)">
       <defs>
        <path d="M 19.1875 8.296875 
L 53.609375 8.296875 
L 53.609375 0 
L 7.328125 0 
L 7.328125 8.296875 
Q 12.9375 14.109375 22.625 23.890625 
Q 32.328125 33.6875 34.8125 36.53125 
Q 39.546875 41.84375 41.421875 45.53125 
Q 43.3125 49.21875 43.3125 52.78125 
Q 43.3125 58.59375 39.234375 62.25 
Q 35.15625 65.921875 28.609375 65.921875 
Q 23.96875 65.921875 18.8125 64.3125 
Q 13.671875 62.703125 7.8125 59.421875 
L 7.8125 69.390625 
Q 13.765625 71.78125 18.9375 73 
Q 24.125 74.21875 28.421875 74.21875 
Q 39.75 74.21875 46.484375 68.546875 
Q 53.21875 62.890625 53.21875 53.421875 
Q 53.21875 48.921875 51.53125 44.890625 
Q 49.859375 40.875 45.40625 35.40625 
Q 44.1875 33.984375 37.640625 27.21875 
Q 31.109375 20.453125 19.1875 8.296875 
z
" id="DejaVuSans-50"/>
       </defs>
       <use xlink:href="#DejaVuSans-48"/>
       <use x="63.623047" xlink:href="#DejaVuSans-46"/>
       <use x="95.410156" xlink:href="#DejaVuSans-50"/>
      </g>
     </g>
    </g>
    <g id="xtick_4">
     <g id="line2d_4">
      <g>
       <use style="stroke:#000000;stroke-width:0.8;" x="316.947453" xlink:href="#m57448e7ba3" y="457.198125"/>
      </g>
     </g>
     <g id="text_4">
      <!-- 0.3 -->
      <g transform="translate(308.995891 471.796562)scale(0.1 -0.1)">
       <defs>
        <path d="M 40.578125 39.3125 
Q 47.65625 37.796875 51.625 33 
Q 55.609375 28.21875 55.609375 21.1875 
Q 55.609375 10.40625 48.1875 4.484375 
Q 40.765625 -1.421875 27.09375 -1.421875 
Q 22.515625 -1.421875 17.65625 -0.515625 
Q 12.796875 0.390625 7.625 2.203125 
L 7.625 11.71875 
Q 11.71875 9.328125 16.59375 8.109375 
Q 21.484375 6.890625 26.8125 6.890625 
Q 36.078125 6.890625 40.9375 10.546875 
Q 45.796875 14.203125 45.796875 21.1875 
Q 45.796875 27.640625 41.28125 31.265625 
Q 36.765625 34.90625 28.71875 34.90625 
L 20.21875 34.90625 
L 20.21875 43.015625 
L 29.109375 43.015625 
Q 36.375 43.015625 40.234375 45.921875 
Q 44.09375 48.828125 44.09375 54.296875 
Q 44.09375 59.90625 40.109375 62.90625 
Q 36.140625 65.921875 28.71875 65.921875 
Q 24.65625 65.921875 20.015625 65.03125 
Q 15.375 64.15625 9.8125 62.3125 
L 9.8125 71.09375 
Q 15.4375 72.65625 20.34375 73.4375 
Q 25.25 74.21875 29.59375 74.21875 
Q 40.828125 74.21875 47.359375 69.109375 
Q 53.90625 64.015625 53.90625 55.328125 
Q 53.90625 49.265625 50.4375 45.09375 
Q 46.96875 40.921875 40.578125 39.3125 
z
" id="DejaVuSans-51"/>
       </defs>
       <use xlink:href="#DejaVuSans-48"/>
       <use x="63.623047" xlink:href="#DejaVuSans-46"/>
       <use x="95.410156" xlink:href="#DejaVuSans-51"/>
      </g>
     </g>
    </g>
    <g id="xtick_5">
     <g id="line2d_5">
      <g>
       <use style="stroke:#000000;stroke-width:0.8;" x="398.192335" xlink:href="#m57448e7ba3" y="457.198125"/>
      </g>
     </g>
     <g id="text_5">
      <!-- 0.4 -->
      <g transform="translate(390.240772 471.796562)scale(0.1 -0.1)">
       <defs>
        <path d="M 37.796875 64.3125 
L 12.890625 25.390625 
L 37.796875 25.390625 
z
M 35.203125 72.90625 
L 47.609375 72.90625 
L 47.609375 25.390625 
L 58.015625 25.390625 
L 58.015625 17.1875 
L 47.609375 17.1875 
L 47.609375 0 
L 37.796875 0 
L 37.796875 17.1875 
L 4.890625 17.1875 
L 4.890625 26.703125 
z
" id="DejaVuSans-52"/>
       </defs>
       <use xlink:href="#DejaVuSans-48"/>
       <use x="63.623047" xlink:href="#DejaVuSans-46"/>
       <use x="95.410156" xlink:href="#DejaVuSans-52"/>
      </g>
     </g>
    </g>
    <g id="xtick_6">
     <g id="line2d_6">
      <g>
       <use style="stroke:#000000;stroke-width:0.8;" x="479.437216" xlink:href="#m57448e7ba3" y="457.198125"/>
      </g>
     </g>
     <g id="text_6">
      <!-- 0.5 -->
      <g transform="translate(471.485653 471.796562)scale(0.1 -0.1)">
       <defs>
        <path d="M 10.796875 72.90625 
L 49.515625 72.90625 
L 49.515625 64.59375 
L 19.828125 64.59375 
L 19.828125 46.734375 
Q 21.96875 47.46875 24.109375 47.828125 
Q 26.265625 48.1875 28.421875 48.1875 
Q 40.625 48.1875 47.75 41.5 
Q 54.890625 34.8125 54.890625 23.390625 
Q 54.890625 11.625 47.5625 5.09375 
Q 40.234375 -1.421875 26.90625 -1.421875 
Q 22.3125 -1.421875 17.546875 -0.640625 
Q 12.796875 0.140625 7.71875 1.703125 
L 7.71875 11.625 
Q 12.109375 9.234375 16.796875 8.0625 
Q 21.484375 6.890625 26.703125 6.890625 
Q 35.15625 6.890625 40.078125 11.328125 
Q 45.015625 15.765625 45.015625 23.390625 
Q 45.015625 31 40.078125 35.4375 
Q 35.15625 39.890625 26.703125 39.890625 
Q 22.75 39.890625 18.8125 39.015625 
Q 14.890625 38.140625 10.796875 36.28125 
z
" id="DejaVuSans-53"/>
       </defs>
       <use xlink:href="#DejaVuSans-48"/>
       <use x="63.623047" xlink:href="#DejaVuSans-46"/>
       <use x="95.410156" xlink:href="#DejaVuSans-53"/>
      </g>
     </g>
    </g>
    <g id="text_7">
     <!-- Time (ms) -->
     <g transform="translate(251.328906 485.474687)scale(0.1 -0.1)">
      <defs>
       <path d="M -0.296875 72.90625 
L 61.375 72.90625 
L 61.375 64.59375 
L 35.5 64.59375 
L 35.5 0 
L 25.59375 0 
L 25.59375 64.59375 
L -0.296875 64.59375 
z
" id="DejaVuSans-84"/>
       <path d="M 9.421875 54.6875 
L 18.40625 54.6875 
L 18.40625 0 
L 9.421875 0 
z
M 9.421875 75.984375 
L 18.40625 75.984375 
L 18.40625 64.59375 
L 9.421875 64.59375 
z
" id="DejaVuSans-105"/>
       <path d="M 52 44.1875 
Q 55.375 50.25 60.0625 53.125 
Q 64.75 56 71.09375 56 
Q 79.640625 56 84.28125 50.015625 
Q 88.921875 44.046875 88.921875 33.015625 
L 88.921875 0 
L 79.890625 0 
L 79.890625 32.71875 
Q 79.890625 40.578125 77.09375 44.375 
Q 74.3125 48.1875 68.609375 48.1875 
Q 61.625 48.1875 57.5625 43.546875 
Q 53.515625 38.921875 53.515625 30.90625 
L 53.515625 0 
L 44.484375 0 
L 44.484375 32.71875 
Q 44.484375 40.625 41.703125 44.40625 
Q 38.921875 48.1875 33.109375 48.1875 
Q 26.21875 48.1875 22.15625 43.53125 
Q 18.109375 38.875 18.109375 30.90625 
L 18.109375 0 
L 9.078125 0 
L 9.078125 54.6875 
L 18.109375 54.6875 
L 18.109375 46.1875 
Q 21.1875 51.21875 25.484375 53.609375 
Q 29.78125 56 35.6875 56 
Q 41.65625 56 45.828125 52.96875 
Q 50 49.953125 52 44.1875 
z
" id="DejaVuSans-109"/>
       <path d="M 56.203125 29.59375 
L 56.203125 25.203125 
L 14.890625 25.203125 
Q 15.484375 15.921875 20.484375 11.0625 
Q 25.484375 6.203125 34.421875 6.203125 
Q 39.59375 6.203125 44.453125 7.46875 
Q 49.3125 8.734375 54.109375 11.28125 
L 54.109375 2.78125 
Q 49.265625 0.734375 44.1875 -0.34375 
Q 39.109375 -1.421875 33.890625 -1.421875 
Q 20.796875 -1.421875 13.15625 6.1875 
Q 5.515625 13.8125 5.515625 26.8125 
Q 5.515625 40.234375 12.765625 48.109375 
Q 20.015625 56 32.328125 56 
Q 43.359375 56 49.78125 48.890625 
Q 56.203125 41.796875 56.203125 29.59375 
z
M 47.21875 32.234375 
Q 47.125 39.59375 43.09375 43.984375 
Q 39.0625 48.390625 32.421875 48.390625 
Q 24.90625 48.390625 20.390625 44.140625 
Q 15.875 39.890625 15.1875 32.171875 
z
" id="DejaVuSans-101"/>
       <path id="DejaVuSans-32"/>
       <path d="M 31 75.875 
Q 24.46875 64.65625 21.28125 53.65625 
Q 18.109375 42.671875 18.109375 31.390625 
Q 18.109375 20.125 21.3125 9.0625 
Q 24.515625 -2 31 -13.1875 
L 23.1875 -13.1875 
Q 15.875 -1.703125 12.234375 9.375 
Q 8.59375 20.453125 8.59375 31.390625 
Q 8.59375 42.28125 12.203125 53.3125 
Q 15.828125 64.359375 23.1875 75.875 
z
" id="DejaVuSans-40"/>
       <path d="M 44.28125 53.078125 
L 44.28125 44.578125 
Q 40.484375 46.53125 36.375 47.5 
Q 32.28125 48.484375 27.875 48.484375 
Q 21.1875 48.484375 17.84375 46.4375 
Q 14.5 44.390625 14.5 40.28125 
Q 14.5 37.15625 16.890625 35.375 
Q 19.28125 33.59375 26.515625 31.984375 
L 29.59375 31.296875 
Q 39.15625 29.25 43.1875 25.515625 
Q 47.21875 21.78125 47.21875 15.09375 
Q 47.21875 7.46875 41.1875 3.015625 
Q 35.15625 -1.421875 24.609375 -1.421875 
Q 20.21875 -1.421875 15.453125 -0.5625 
Q 10.6875 0.296875 5.421875 2 
L 5.421875 11.28125 
Q 10.40625 8.6875 15.234375 7.390625 
Q 20.0625 6.109375 24.8125 6.109375 
Q 31.15625 6.109375 34.5625 8.28125 
Q 37.984375 10.453125 37.984375 14.40625 
Q 37.984375 18.0625 35.515625 20.015625 
Q 33.0625 21.96875 24.703125 23.78125 
L 21.578125 24.515625 
Q 13.234375 26.265625 9.515625 29.90625 
Q 5.8125 33.546875 5.8125 39.890625 
Q 5.8125 47.609375 11.28125 51.796875 
Q 16.75 56 26.8125 56 
Q 31.78125 56 36.171875 55.265625 
Q 40.578125 54.546875 44.28125 53.078125 
z
" id="DejaVuSans-115"/>
       <path d="M 8.015625 75.875 
L 15.828125 75.875 
Q 23.140625 64.359375 26.78125 53.3125 
Q 30.421875 42.28125 30.421875 31.390625 
Q 30.421875 20.453125 26.78125 9.375 
Q 23.140625 -1.703125 15.828125 -13.1875 
L 8.015625 -13.1875 
Q 14.5 -2 17.703125 9.0625 
Q 20.90625 20.125 20.90625 31.390625 
Q 20.90625 42.671875 17.703125 53.65625 
Q 14.5 64.65625 8.015625 75.875 
z
" id="DejaVuSans-41"/>
      </defs>
      <use xlink:href="#DejaVuSans-84"/>
      <use x="57.958984" xlink:href="#DejaVuSans-105"/>
      <use x="85.742188" xlink:href="#DejaVuSans-109"/>
      <use x="183.154297" xlink:href="#DejaVuSans-101"/>
      <use x="244.677734" xlink:href="#DejaVuSans-32"/>
      <use x="276.464844" xlink:href="#DejaVuSans-40"/>
      <use x="315.478516" xlink:href="#DejaVuSans-109"/>
      <use x="412.890625" xlink:href="#DejaVuSans-115"/>
      <use x="464.990234" xlink:href="#DejaVuSans-41"/>
     </g>
    </g>
   </g>
   <g id="matplotlib.axis_2">
    <g id="ytick_1">
     <g id="line2d_7">
      <defs>
       <path d="M 0 0 
L -3.5 0 
" id="mf6e2f802f7" style="stroke:#000000;stroke-width:0.8;"/>
      </defs>
      <g>
       <use style="stroke:#000000;stroke-width:0.8;" x="53.328125" xlink:href="#mf6e2f802f7" y="437.430852"/>
      </g>
     </g>
     <g id="text_8">
      <!-- 1000 -->
      <g transform="translate(20.878125 441.230071)scale(0.1 -0.1)">
       <use xlink:href="#DejaVuSans-49"/>
       <use x="63.623047" xlink:href="#DejaVuSans-48"/>
       <use x="127.246094" xlink:href="#DejaVuSans-48"/>
       <use x="190.869141" xlink:href="#DejaVuSans-48"/>
      </g>
     </g>
    </g>
    <g id="ytick_2">
     <g id="line2d_8">
      <g>
       <use style="stroke:#000000;stroke-width:0.8;" x="53.328125" xlink:href="#mf6e2f802f7" y="379.251088"/>
      </g>
     </g>
     <g id="text_9">
      <!-- 1250 -->
      <g transform="translate(20.878125 383.050307)scale(0.1 -0.1)">
       <use xlink:href="#DejaVuSans-49"/>
       <use x="63.623047" xlink:href="#DejaVuSans-50"/>
       <use x="127.246094" xlink:href="#DejaVuSans-53"/>
       <use x="190.869141" xlink:href="#DejaVuSans-48"/>
      </g>
     </g>
    </g>
    <g id="ytick_3">
     <g id="line2d_9">
      <g>
       <use style="stroke:#000000;stroke-width:0.8;" x="53.328125" xlink:href="#mf6e2f802f7" y="321.071325"/>
      </g>
     </g>
     <g id="text_10">
      <!-- 1500 -->
      <g transform="translate(20.878125 324.870543)scale(0.1 -0.1)">
       <use xlink:href="#DejaVuSans-49"/>
       <use x="63.623047" xlink:href="#DejaVuSans-53"/>
       <use x="127.246094" xlink:href="#DejaVuSans-48"/>
       <use x="190.869141" xlink:href="#DejaVuSans-48"/>
      </g>
     </g>
    </g>
    <g id="ytick_4">
     <g id="line2d_10">
      <g>
       <use style="stroke:#000000;stroke-width:0.8;" x="53.328125" xlink:href="#mf6e2f802f7" y="262.891561"/>
      </g>
     </g>
     <g id="text_11">
      <!-- 1750 -->
      <g transform="translate(20.878125 266.69078)scale(0.1 -0.1)">
       <defs>
        <path d="M 8.203125 72.90625 
L 55.078125 72.90625 
L 55.078125 68.703125 
L 28.609375 0 
L 18.3125 0 
L 43.21875 64.59375 
L 8.203125 64.59375 
z
" id="DejaVuSans-55"/>
       </defs>
       <use xlink:href="#DejaVuSans-49"/>
       <use x="63.623047" xlink:href="#DejaVuSans-55"/>
       <use x="127.246094" xlink:href="#DejaVuSans-53"/>
       <use x="190.869141" xlink:href="#DejaVuSans-48"/>
      </g>
     </g>
    </g>
    <g id="ytick_5">
     <g id="line2d_11">
      <g>
       <use style="stroke:#000000;stroke-width:0.8;" x="53.328125" xlink:href="#mf6e2f802f7" y="204.711797"/>
      </g>
     </g>
     <g id="text_12">
      <!-- 2000 -->
      <g transform="translate(20.878125 208.511016)scale(0.1 -0.1)">
       <use xlink:href="#DejaVuSans-50"/>
       <use x="63.623047" xlink:href="#DejaVuSans-48"/>
       <use x="127.246094" xlink:href="#DejaVuSans-48"/>
       <use x="190.869141" xlink:href="#DejaVuSans-48"/>
      </g>
     </g>
    </g>
    <g id="ytick_6">
     <g id="line2d_12">
      <g>
       <use style="stroke:#000000;stroke-width:0.8;" x="53.328125" xlink:href="#mf6e2f802f7" y="146.532034"/>
      </g>
     </g>
     <g id="text_13">
      <!-- 2250 -->
      <g transform="translate(20.878125 150.331253)scale(0.1 -0.1)">
       <use xlink:href="#DejaVuSans-50"/>
       <use x="63.623047" xlink:href="#DejaVuSans-50"/>
       <use x="127.246094" xlink:href="#DejaVuSans-53"/>
       <use x="190.869141" xlink:href="#DejaVuSans-48"/>
      </g>
     </g>
    </g>
    <g id="ytick_7">
     <g id="line2d_13">
      <g>
       <use style="stroke:#000000;stroke-width:0.8;" x="53.328125" xlink:href="#mf6e2f802f7" y="88.35227"/>
      </g>
     </g>
     <g id="text_14">
      <!-- 2500 -->
      <g transform="translate(20.878125 92.151489)scale(0.1 -0.1)">
       <use xlink:href="#DejaVuSans-50"/>
       <use x="63.623047" xlink:href="#DejaVuSans-53"/>
       <use x="127.246094" xlink:href="#DejaVuSans-48"/>
       <use x="190.869141" xlink:href="#DejaVuSans-48"/>
      </g>
     </g>
    </g>
    <g id="ytick_8">
     <g id="line2d_14">
      <g>
       <use style="stroke:#000000;stroke-width:0.8;" x="53.328125" xlink:href="#mf6e2f802f7" y="30.172507"/>
      </g>
     </g>
     <g id="text_15">
      <!-- 2750 -->
      <g transform="translate(20.878125 33.971725)scale(0.1 -0.1)">
       <use xlink:href="#DejaVuSans-50"/>
       <use x="63.623047" xlink:href="#DejaVuSans-55"/>
       <use x="127.246094" xlink:href="#DejaVuSans-53"/>
       <use x="190.869141" xlink:href="#DejaVuSans-48"/>
      </g>
     </g>
    </g>
    <g id="text_16">
     <!-- Temperature (K) -->
     <g transform="translate(14.798438 280.197187)rotate(-90)scale(0.1 -0.1)">
      <defs>
       <path d="M 18.109375 8.203125 
L 18.109375 -20.796875 
L 9.078125 -20.796875 
L 9.078125 54.6875 
L 18.109375 54.6875 
L 18.109375 46.390625 
Q 20.953125 51.265625 25.265625 53.625 
Q 29.59375 56 35.59375 56 
Q 45.5625 56 51.78125 48.09375 
Q 58.015625 40.1875 58.015625 27.296875 
Q 58.015625 14.40625 51.78125 6.484375 
Q 45.5625 -1.421875 35.59375 -1.421875 
Q 29.59375 -1.421875 25.265625 0.953125 
Q 20.953125 3.328125 18.109375 8.203125 
z
M 48.6875 27.296875 
Q 48.6875 37.203125 44.609375 42.84375 
Q 40.53125 48.484375 33.40625 48.484375 
Q 26.265625 48.484375 22.1875 42.84375 
Q 18.109375 37.203125 18.109375 27.296875 
Q 18.109375 17.390625 22.1875 11.75 
Q 26.265625 6.109375 33.40625 6.109375 
Q 40.53125 6.109375 44.609375 11.75 
Q 48.6875 17.390625 48.6875 27.296875 
z
" id="DejaVuSans-112"/>
       <path d="M 41.109375 46.296875 
Q 39.59375 47.171875 37.8125 47.578125 
Q 36.03125 48 33.890625 48 
Q 26.265625 48 22.1875 43.046875 
Q 18.109375 38.09375 18.109375 28.8125 
L 18.109375 0 
L 9.078125 0 
L 9.078125 54.6875 
L 18.109375 54.6875 
L 18.109375 46.1875 
Q 20.953125 51.171875 25.484375 53.578125 
Q 30.03125 56 36.53125 56 
Q 37.453125 56 38.578125 55.875 
Q 39.703125 55.765625 41.0625 55.515625 
z
" id="DejaVuSans-114"/>
       <path d="M 34.28125 27.484375 
Q 23.390625 27.484375 19.1875 25 
Q 14.984375 22.515625 14.984375 16.5 
Q 14.984375 11.71875 18.140625 8.90625 
Q 21.296875 6.109375 26.703125 6.109375 
Q 34.1875 6.109375 38.703125 11.40625 
Q 43.21875 16.703125 43.21875 25.484375 
L 43.21875 27.484375 
z
M 52.203125 31.203125 
L 52.203125 0 
L 43.21875 0 
L 43.21875 8.296875 
Q 40.140625 3.328125 35.546875 0.953125 
Q 30.953125 -1.421875 24.3125 -1.421875 
Q 15.921875 -1.421875 10.953125 3.296875 
Q 6 8.015625 6 15.921875 
Q 6 25.140625 12.171875 29.828125 
Q 18.359375 34.515625 30.609375 34.515625 
L 43.21875 34.515625 
L 43.21875 35.40625 
Q 43.21875 41.609375 39.140625 45 
Q 35.0625 48.390625 27.6875 48.390625 
Q 23 48.390625 18.546875 47.265625 
Q 14.109375 46.140625 10.015625 43.890625 
L 10.015625 52.203125 
Q 14.9375 54.109375 19.578125 55.046875 
Q 24.21875 56 28.609375 56 
Q 40.484375 56 46.34375 49.84375 
Q 52.203125 43.703125 52.203125 31.203125 
z
" id="DejaVuSans-97"/>
       <path d="M 18.3125 70.21875 
L 18.3125 54.6875 
L 36.8125 54.6875 
L 36.8125 47.703125 
L 18.3125 47.703125 
L 18.3125 18.015625 
Q 18.3125 11.328125 20.140625 9.421875 
Q 21.96875 7.515625 27.59375 7.515625 
L 36.8125 7.515625 
L 36.8125 0 
L 27.59375 0 
Q 17.1875 0 13.234375 3.875 
Q 9.28125 7.765625 9.28125 18.015625 
L 9.28125 47.703125 
L 2.6875 47.703125 
L 2.6875 54.6875 
L 9.28125 54.6875 
L 9.28125 70.21875 
z
" id="DejaVuSans-116"/>
       <path d="M 8.5 21.578125 
L 8.5 54.6875 
L 17.484375 54.6875 
L 17.484375 21.921875 
Q 17.484375 14.15625 20.5 10.265625 
Q 23.53125 6.390625 29.59375 6.390625 
Q 36.859375 6.390625 41.078125 11.03125 
Q 45.3125 15.671875 45.3125 23.6875 
L 45.3125 54.6875 
L 54.296875 54.6875 
L 54.296875 0 
L 45.3125 0 
L 45.3125 8.40625 
Q 42.046875 3.421875 37.71875 1 
Q 33.40625 -1.421875 27.6875 -1.421875 
Q 18.265625 -1.421875 13.375 4.4375 
Q 8.5 10.296875 8.5 21.578125 
z
M 31.109375 56 
z
" id="DejaVuSans-117"/>
       <path d="M 9.8125 72.90625 
L 19.671875 72.90625 
L 19.671875 42.09375 
L 52.390625 72.90625 
L 65.09375 72.90625 
L 28.90625 38.921875 
L 67.671875 0 
L 54.6875 0 
L 19.671875 35.109375 
L 19.671875 0 
L 9.8125 0 
z
" id="DejaVuSans-75"/>
      </defs>
      <use xlink:href="#DejaVuSans-84"/>
      <use x="44.083984" xlink:href="#DejaVuSans-101"/>
      <use x="105.607422" xlink:href="#DejaVuSans-109"/>
      <use x="203.019531" xlink:href="#DejaVuSans-112"/>
      <use x="266.496094" xlink:href="#DejaVuSans-101"/>
      <use x="328.019531" xlink:href="#DejaVuSans-114"/>
      <use x="369.132812" xlink:href="#DejaVuSans-97"/>
      <use x="430.412109" xlink:href="#DejaVuSans-116"/>
      <use x="469.621094" xlink:href="#DejaVuSans-117"/>
      <use x="533" xlink:href="#DejaVuSans-114"/>
      <use x="571.863281" xlink:href="#DejaVuSans-101"/>
      <use x="633.386719" xlink:href="#DejaVuSans-32"/>
      <use x="665.173828" xlink:href="#DejaVuSans-40"/>
      <use x="704.1875" xlink:href="#DejaVuSans-75"/>
      <use x="769.763672" xlink:href="#DejaVuSans-41"/>
     </g>
    </g>
   </g>
   <g id="line2d_15">
    <path clip-path="url(#p5d1eec9c46)" d="M 73.619034 437.430852 
L 231.234104 437.323818 
L 242.608387 437.103997 
L 249.514202 436.763891 
L 254.795119 436.279416 
L 258.857363 435.687706 
L 262.107159 435.010055 
L 264.950729 434.208282 
L 267.388076 433.312549 
L 269.825422 432.162791 
L 271.856544 430.95382 
L 273.887666 429.451888 
L 275.512564 427.985482 
L 277.137462 426.225766 
L 278.762359 424.103406 
L 280.387257 421.528654 
L 281.60593 419.231404 
L 282.824603 416.551698 
L 284.043277 413.412296 
L 285.26195 409.718486 
L 286.480623 405.355771 
L 287.699296 400.190333 
L 288.917969 394.076951 
L 290.136643 386.883364 
L 291.355316 378.543866 
L 292.980213 365.830188 
L 297.042458 332.808687 
L 298.667355 321.918899 
L 300.292253 312.641526 
L 301.91715 304.659812 
L 303.542048 297.684716 
L 305.57317 290.063537 
L 307.604292 283.398474 
L 309.635414 277.491315 
L 311.666536 272.199953 
L 314.103883 266.516367 
L 316.541229 261.432277 
L 318.978575 256.845687 
L 321.415922 252.678357 
L 324.259493 248.265235 
L 327.103064 244.263124 
L 329.946634 240.61182 
L 333.19643 236.807124 
L 336.446225 233.340366 
L 340.102245 229.786971 
L 343.758264 226.549953 
L 347.820508 223.272605 
L 351.882752 220.28576 
L 356.351221 217.289984 
L 360.819689 214.557421 
L 365.694382 211.836658 
L 370.975299 209.154834 
L 376.662441 206.533742 
L 382.349583 204.152142 
L 388.442949 201.830543 
L 394.942539 199.58168 
L 402.254579 197.294052 
L 409.972842 195.118801 
L 418.097331 193.056968 
L 427.034268 191.020105 
L 436.783653 189.03369 
L 447.345488 187.117248 
L 458.719771 185.284995 
L 470.906503 183.546592 
L 479.437216 182.448402 
L 479.437216 182.448402 
" style="fill:none;stroke:#1f77b4;stroke-linecap:square;stroke-width:1.5;"/>
   </g>
   <g id="line2d_16">
    <path clip-path="url(#p5d1eec9c46)" d="M 73.619034 437.430852 
L 225.140738 437.323734 
L 236.515021 437.094262 
L 243.014611 436.756309 
L 247.889304 436.289978 
L 251.545324 435.743541 
L 254.795119 435.046792 
L 257.63869 434.206049 
L 260.076037 433.248932 
L 262.107159 432.229282 
L 264.138281 430.945966 
L 265.763178 429.676894 
L 267.388076 428.134388 
L 269.012973 426.246795 
L 270.637871 423.917773 
L 271.856544 421.803507 
L 273.075218 419.293015 
L 274.293891 416.288729 
L 275.512564 412.661226 
L 276.731237 408.236912 
L 277.94991 402.781905 
L 279.168584 395.984822 
L 280.387257 387.452123 
L 281.60593 376.761529 
L 283.230828 361.284485 
L 284.449501 350.755923 
L 285.26195 343.976947 
L 286.886847 326.799522 
L 288.511745 310.114327 
L 290.136643 296.063977 
L 291.76154 284.289916 
L 293.386438 274.197534 
L 293.792662 269.647907 
L 295.41756 257.547051 
L 297.448682 248.863535 
L 299.479804 241.158513 
L 301.510926 234.24073 
L 303.948272 226.784428 
L 306.385619 220.084404 
L 308.822965 214.00943 
L 311.666536 207.580342 
L 314.510107 201.746313 
L 317.353678 196.414703 
L 320.197249 191.512973 
L 323.447044 186.363644 
L 326.696839 181.631326 
L 329.946634 177.260566 
L 333.602654 172.719779 
L 337.258674 168.527267 
L 341.320918 164.225558 
L 345.383162 160.25295 
L 349.85163 156.216196 
L 354.320099 152.486535 
L 359.194792 148.726083 
L 364.069485 145.24992 
L 369.350402 141.767778 
L 374.631319 138.547603 
L 380.318461 135.340073 
L 386.411827 132.170029 
L 392.505193 129.245691 
L 399.004783 126.368056 
L 405.910598 123.554895 
L 413.222638 120.821418 
L 420.940901 118.180512 
L 429.06539 115.642985 
L 437.596102 113.217766 
L 446.533039 110.912096 
L 455.8762 108.73167 
L 465.625586 106.68075 
L 476.187421 104.689789 
L 479.437216 104.121426 
L 479.437216 104.121426 
" style="fill:none;stroke:#ff7f0e;stroke-linecap:square;stroke-width:1.5;"/>
   </g>
   <g id="line2d_17">
    <path clip-path="url(#p5d1eec9c46)" d="M 73.619034 437.430852 
L 226.359411 437.322977 
L 237.733694 437.098894 
L 244.233285 436.770849 
L 249.107978 436.317974 
L 253.170222 435.71356 
L 256.420017 435.004327 
L 259.263588 434.145885 
L 261.700934 433.165053 
L 263.732056 432.115926 
L 265.763178 430.789255 
L 267.388076 429.470334 
L 269.012973 427.857683 
L 270.637871 425.869586 
L 271.856544 424.065992 
L 273.075218 421.92518 
L 274.293891 419.363188 
L 275.512564 416.267177 
L 276.731237 412.482386 
L 277.94991 407.792193 
L 279.168584 401.888131 
L 280.387257 394.328431 
L 281.199706 388.072354 
L 282.012154 380.58656 
L 282.418379 376.310223 
L 282.824603 374.027529 
L 284.855725 355.886276 
L 285.668174 350.674881 
L 286.480623 343.546126 
L 287.293072 334.919409 
L 288.105521 329.970698 
L 289.324194 321.057217 
L 294.605111 279.900007 
L 296.636233 266.456809 
L 297.854906 259.063561 
L 298.667355 250.258859 
L 299.886028 239.948599 
L 301.104702 231.813111 
L 301.510926 229.432397 
L 302.323375 221.403714 
L 303.135824 215.850674 
L 303.542048 211.421043 
L 303.948272 208.584872 
L 304.354497 204.491373 
L 306.791843 196.812611 
L 309.22919 189.836933 
L 312.072761 182.436924 
L 314.916331 175.702669 
L 317.759902 169.529643 
L 320.603473 163.836409 
L 323.853268 157.834944 
L 327.103064 152.298966 
L 330.352859 147.166961 
L 334.008878 141.814583 
L 337.664898 136.85281 
L 341.727142 131.740917 
L 345.789386 127.000623 
L 349.85163 122.58876 
L 354.320099 118.072544 
L 358.788567 113.871016 
L 363.66326 109.607894 
L 368.537953 105.644507 
L 373.81887 101.65456 
L 379.099788 97.949516 
L 384.786929 94.247349 
L 390.474071 90.816065 
L 396.567437 87.412899 
L 402.660803 84.267564 
L 409.160394 81.172125 
L 415.659984 78.322151 
L 422.565799 75.540558 
L 429.471614 72.992141 
L 436.783653 70.527026 
L 444.501917 68.163477 
L 452.626405 65.917267 
L 461.157118 63.801503 
L 470.094055 61.826477 
L 479.437216 59.999557 
L 479.437216 59.999557 
" style="fill:none;stroke:#2ca02c;stroke-linecap:square;stroke-width:1.5;"/>
   </g>
   <g id="line2d_18">
    <path clip-path="url(#p5d1eec9c46)" d="M 73.619034 437.430852 
L 230.827879 437.321731 
L 242.608387 437.094779 
L 249.514202 436.747542 
L 254.388895 436.293847 
L 258.451139 435.69379 
L 261.700934 434.99404 
L 264.544505 434.151046 
L 266.981851 433.191508 
L 269.012973 432.168229 
L 271.044096 430.877519 
L 272.668993 429.596991 
L 274.293891 428.033833 
L 275.918788 426.109387 
L 277.137462 424.365122 
L 278.356135 422.295739 
L 279.574808 419.819501 
L 280.793481 416.825835 
L 282.012154 413.161645 
L 283.230828 408.609611 
L 284.449501 402.85351 
L 285.26195 398.12401 
L 286.074399 392.464063 
L 286.886847 385.628159 
L 287.699296 377.317986 
L 288.105521 374.972475 
L 288.511745 371.234244 
L 288.917969 368.927318 
L 291.355316 349.092587 
L 291.76154 344.623934 
L 292.573989 339.409 
L 293.792662 329.361632 
L 295.823784 309.27075 
L 297.854906 289.921511 
L 299.479804 276.379433 
L 301.510926 261.408182 
L 303.542048 248.176157 
L 304.354497 243.305556 
L 305.166946 234.521017 
L 306.385619 224.24218 
L 307.604292 216.142315 
L 308.010516 213.773889 
L 308.822965 205.781722 
L 309.635414 200.251466 
L 310.041639 195.838139 
L 310.447863 193.011931 
L 310.854087 188.932299 
L 313.291434 181.281184 
L 315.72878 174.299886 
L 318.572351 166.863493 
L 321.415922 160.070074 
L 324.259493 153.821847 
L 327.509288 147.250898 
L 330.759083 141.201931 
L 334.008878 135.603556 
L 337.664898 129.772976 
L 341.320918 124.374429 
L 344.976937 119.354656 
L 349.039182 114.168563 
L 353.101426 109.3472 
L 357.16367 104.850083 
L 361.632138 100.237696 
L 366.100607 95.939514 
L 370.975299 91.572267 
L 375.849992 87.507633 
L 380.724685 83.716894 
L 386.005602 79.891112 
L 391.28652 76.331671 
L 396.973661 72.770295 
L 402.660803 69.467045 
L 408.754169 66.190261 
L 414.847535 63.162751 
L 421.347126 60.185697 
L 427.846716 57.448107 
L 434.752531 54.780455 
L 442.064571 52.204213 
L 449.37661 49.861846 
L 457.094874 47.621103 
L 465.219362 45.496613 
L 473.750074 43.500125 
L 479.437216 42.290808 
L 479.437216 42.290808 
" style="fill:none;stroke:#d62728;stroke-linecap:square;stroke-width:1.5;"/>
   </g>
   <g id="line2d_19">
    <path clip-path="url(#p5d1eec9c46)" d="M 73.619034 437.430852 
L 236.921245 437.321824 
L 249.107978 437.098802 
L 256.013792 436.773999 
L 261.29471 436.312256 
L 265.356954 435.745272 
L 268.606749 435.091021 
L 271.45032 434.310013 
L 273.887666 433.428429 
L 275.918788 432.495334 
L 277.94991 431.327086 
L 279.574808 430.176368 
L 281.199706 428.78159 
L 282.824603 427.077898 
L 284.449501 424.976956 
L 285.668174 423.06802 
L 286.886847 420.796122 
L 288.105521 418.065793 
L 289.324194 414.745812 
L 290.542867 410.6511 
L 291.76154 405.513299 
L 292.980213 398.932755 
L 293.792662 393.456406 
L 294.605111 386.825679 
L 295.41756 378.722391 
L 295.823784 376.423674 
L 296.230009 372.74705 
L 296.636233 370.469319 
L 298.667355 354.580332 
L 299.886028 343.396063 
L 300.698477 337.280289 
L 301.91715 325.825841 
L 305.979394 284.017576 
L 307.604292 270.512895 
L 309.635414 255.69288 
L 311.666536 242.627868 
L 312.478985 237.823333 
L 313.291434 229.159505 
L 314.510107 219.02414 
L 315.72878 211.04145 
L 316.541229 202.739976 
L 317.353678 197.059061 
L 317.759902 192.559518 
L 318.166127 189.694148 
L 318.572351 185.579677 
L 321.009697 177.936823 
L 323.447044 170.972523 
L 326.290615 163.564368 
L 329.134186 156.806093 
L 331.977756 150.598263 
L 335.227552 144.078361 
L 338.477347 138.084344 
L 341.727142 132.543791 
L 345.383162 126.780704 
L 349.039182 121.451383 
L 352.695201 116.501853 
L 356.757445 111.39429 
L 360.819689 106.651316 
L 364.881933 102.231868 
L 369.350402 97.703484 
L 373.81887 93.487224 
L 378.693563 89.20634 
L 383.568256 85.224318 
L 388.849173 81.213857 
L 394.130091 77.488328 
L 399.817232 73.764261 
L 405.504374 70.311133 
L 411.59774 66.884287 
L 417.691106 63.714487 
L 424.190697 60.591405 
L 430.690287 57.711438 
L 437.596102 54.894561 
L 444.908141 52.161007 
L 452.220181 49.660908 
L 459.938444 47.252499 
L 468.062933 44.949924 
L 476.593645 42.764823 
L 479.437216 42.085398 
L 479.437216 42.085398 
" style="fill:none;stroke:#9467bd;stroke-linecap:square;stroke-width:1.5;"/>
   </g>
   <g id="line2d_20">
    <path clip-path="url(#p5d1eec9c46)" d="M 73.619034 437.430852 
L 244.233285 437.320899 
L 256.826241 437.101044 
L 264.138281 436.771831 
L 269.419198 436.331721 
L 273.887666 435.73415 
L 277.543686 435.009267 
L 280.387257 434.232693 
L 282.824603 433.363019 
L 285.26195 432.240895 
L 287.293072 431.051585 
L 288.917969 429.88511 
L 290.542867 428.476479 
L 292.167765 426.762087 
L 293.792662 424.65541 
L 295.011335 422.746994 
L 296.230009 420.481498 
L 297.448682 417.765697 
L 298.667355 414.471548 
L 299.886028 410.418551 
L 301.104702 405.344972 
L 302.323375 398.86049 
L 303.135824 393.471603 
L 303.948272 386.95067 
L 304.760721 378.978983 
L 305.166946 374.331721 
L 305.57317 371.821187 
L 305.979394 367.805735 
L 306.385619 365.319419 
L 309.635414 338.545325 
L 310.447863 331.938798 
L 311.666536 319.935788 
L 314.510107 290.164504 
L 316.135005 276.00876 
L 317.759902 263.697438 
L 319.791024 250.063634 
L 321.009697 242.644846 
L 321.822146 233.847114 
L 323.04082 223.582717 
L 324.259493 215.515952 
L 325.071942 207.14813 
L 325.88439 201.434427 
L 326.290615 196.916211 
L 326.696839 194.042033 
L 327.103064 189.918953 
L 329.54041 182.270611 
L 331.977756 175.331318 
L 334.415103 168.986336 
L 337.258674 162.217645 
L 340.102245 156.028165 
L 342.945815 150.332685 
L 346.195611 144.34241 
L 349.445406 138.829213 
L 352.695201 133.7291 
L 356.351221 128.421101 
L 360.00724 123.510638 
L 363.66326 118.948951 
L 367.725504 114.24082 
L 371.787748 109.868234 
L 376.256217 105.401101 
L 380.724685 101.25273 
L 385.599378 97.050131 
L 390.474071 93.14799 
L 395.754988 89.223245 
L 401.035906 85.580398 
L 406.723047 81.940002 
L 412.410189 78.563385 
L 418.503555 75.209205 
L 424.596921 72.10142 
L 431.096512 69.031996 
L 438.002326 66.022014 
L 445.314366 63.089945 
L 452.626405 60.394962 
L 460.344669 57.782876 
L 468.469157 55.266787 
L 476.999869 52.857623 
L 479.437216 52.209777 
L 479.437216 52.209777 
" style="fill:none;stroke:#8c564b;stroke-linecap:square;stroke-width:1.5;"/>
   </g>
   <g id="line2d_21">
    <path clip-path="url(#p5d1eec9c46)" d="M 73.619034 437.430852 
L 251.951548 437.323084 
L 265.356954 437.102888 
L 273.075218 436.771011 
L 278.762359 436.311747 
L 283.230828 435.732796 
L 286.886847 435.040326 
L 290.136643 434.184561 
L 292.573989 433.337638 
L 295.011335 432.253998 
L 297.042458 431.114616 
L 299.07358 429.694657 
L 300.698477 428.299796 
L 302.323375 426.610772 
L 303.948272 424.546299 
L 305.166946 422.685268 
L 306.385619 420.486057 
L 307.604292 417.86269 
L 308.822965 414.697918 
L 310.041639 410.827773 
L 311.260312 406.016579 
L 312.478985 399.915996 
L 313.291434 394.882504 
L 314.103883 388.828437 
L 314.916331 381.468464 
L 315.322556 377.190757 
L 315.72878 374.881665 
L 316.135005 371.18845 
L 316.541229 368.900306 
L 318.572351 352.929988 
L 319.791024 341.674873 
L 320.603473 335.516054 
L 321.822146 323.98141 
L 325.478166 286.263793 
L 327.103064 273.110545 
L 328.727961 261.694894 
L 330.759083 249.044749 
L 331.571532 240.2906 
L 332.790205 230.104403 
L 334.008878 222.116822 
L 334.821327 213.850978 
L 335.633776 208.218814 
L 336.040001 203.771999 
L 336.446225 200.946259 
L 336.852449 196.896689 
L 339.289796 189.395968 
L 341.727142 182.615113 
L 344.164489 176.43492 
L 347.008059 169.862569 
L 349.85163 163.870836 
L 352.695201 158.3724 
L 355.944996 152.604659 
L 359.194792 147.309827 
L 362.444587 142.422995 
L 366.100607 137.348128 
L 369.756626 132.663088 
L 373.412646 128.318809 
L 377.47489 123.842651 
L 381.537134 119.691863 
L 386.005602 115.456974 
L 390.474071 111.528654 
L 395.348764 107.552391 
L 400.223457 103.862523 
L 405.504374 100.152211 
L 410.785291 96.708037 
L 416.472433 93.264464 
L 422.565799 89.847831 
L 428.659165 86.683581 
L 435.158756 83.557364 
L 442.064571 80.488143 
L 449.37661 77.492173 
L 457.094874 74.583202 
L 465.219362 71.772681 
L 473.750074 69.069966 
L 479.437216 67.396233 
L 479.437216 67.396233 
" style="fill:none;stroke:#e377c2;stroke-linecap:square;stroke-width:1.5;"/>
   </g>
   <g id="line2d_22">
    <path clip-path="url(#p5d1eec9c46)" d="M 73.619034 437.430852 
L 260.482261 437.323031 
L 274.700115 437.098398 
L 282.824603 436.758256 
L 288.511745 436.314892 
L 292.980213 435.766005 
L 296.636233 435.118834 
L 299.886028 434.329178 
L 302.729599 433.408983 
L 305.166946 432.390388 
L 307.198068 431.329031 
L 309.22919 430.018139 
L 310.854087 428.741691 
L 312.478985 427.209499 
L 314.103883 425.355008 
L 315.72878 423.08751 
L 316.947453 421.0413 
L 318.166127 418.619293 
L 319.3848 415.723143 
L 320.603473 412.217525 
L 321.822146 407.911439 
L 323.04082 402.527987 
L 324.259493 395.655676 
L 325.071942 389.952323 
L 325.88439 383.06521 
L 326.696839 374.679871 
L 327.103064 372.308544 
L 327.509288 368.523705 
L 327.915512 366.184274 
L 330.352859 345.927669 
L 330.759083 341.327298 
L 331.571532 335.944486 
L 332.790205 325.550394 
L 337.258674 283.035577 
L 338.883571 271.338798 
L 340.914693 258.654304 
L 341.727142 249.922273 
L 342.945815 239.776532 
L 344.164489 231.821458 
L 344.976937 223.598122 
L 345.789386 218.001049 
L 346.195611 213.585743 
L 346.601835 210.78141 
L 347.008059 206.764237 
L 349.445406 199.325922 
L 351.882752 192.631615 
L 354.320099 186.554 
L 357.16367 180.114406 
L 360.00724 174.264062 
L 362.850811 168.911756 
L 365.694382 163.985853 
L 368.944177 158.805397 
L 372.193973 154.038777 
L 375.849992 149.102869 
L 379.506012 144.558186 
L 383.162032 140.353785 
L 387.224276 136.030877 
L 391.28652 132.029825 
L 395.754988 127.954537 
L 400.223457 124.179702 
L 405.09815 120.363307 
L 409.972842 116.825018 
L 415.25376 113.269323 
L 420.940901 109.725658 
L 426.628043 106.444257 
L 432.721409 103.186541 
L 439.221 99.972969 
L 446.126815 96.82079 
L 453.03263 93.90874 
L 460.344669 91.058434 
L 468.062933 88.281753 
L 476.187421 85.588489 
L 479.437216 84.57138 
L 479.437216 84.57138 
" style="fill:none;stroke:#7f7f7f;stroke-linecap:square;stroke-width:1.5;"/>
   </g>
   <g id="patch_3">
    <path d="M 53.328125 457.198125 
L 53.328125 22.318125 
" style="fill:none;stroke:#000000;stroke-linecap:square;stroke-linejoin:miter;stroke-width:0.8;"/>
   </g>
   <g id="patch_4">
    <path d="M 499.728125 457.198125 
L 499.728125 22.318125 
" style="fill:none;stroke:#000000;stroke-linecap:square;stroke-linejoin:miter;stroke-width:0.8;"/>
   </g>
   <g id="patch_5">
    <path d="M 53.328125 457.198125 
L 499.728125 457.198125 
" style="fill:none;stroke:#000000;stroke-linecap:square;stroke-linejoin:miter;stroke-width:0.8;"/>
   </g>
   <g id="patch_6">
    <path d="M 53.328125 22.318125 
L 499.728125 22.318125 
" style="fill:none;stroke:#000000;stroke-linecap:square;stroke-linejoin:miter;stroke-width:0.8;"/>
   </g>
   <g id="text_17">
    <!-- IdealGasConstPressure Reactor Simulation (ignition) -->
    <g transform="translate(119.850313 16.318125)scale(0.12 -0.12)">
     <defs>
      <path d="M 9.8125 72.90625 
L 19.671875 72.90625 
L 19.671875 0 
L 9.8125 0 
z
" id="DejaVuSans-73"/>
      <path d="M 45.40625 46.390625 
L 45.40625 75.984375 
L 54.390625 75.984375 
L 54.390625 0 
L 45.40625 0 
L 45.40625 8.203125 
Q 42.578125 3.328125 38.25 0.953125 
Q 33.9375 -1.421875 27.875 -1.421875 
Q 17.96875 -1.421875 11.734375 6.484375 
Q 5.515625 14.40625 5.515625 27.296875 
Q 5.515625 40.1875 11.734375 48.09375 
Q 17.96875 56 27.875 56 
Q 33.9375 56 38.25 53.625 
Q 42.578125 51.265625 45.40625 46.390625 
z
M 14.796875 27.296875 
Q 14.796875 17.390625 18.875 11.75 
Q 22.953125 6.109375 30.078125 6.109375 
Q 37.203125 6.109375 41.296875 11.75 
Q 45.40625 17.390625 45.40625 27.296875 
Q 45.40625 37.203125 41.296875 42.84375 
Q 37.203125 48.484375 30.078125 48.484375 
Q 22.953125 48.484375 18.875 42.84375 
Q 14.796875 37.203125 14.796875 27.296875 
z
" id="DejaVuSans-100"/>
      <path d="M 9.421875 75.984375 
L 18.40625 75.984375 
L 18.40625 0 
L 9.421875 0 
z
" id="DejaVuSans-108"/>
      <path d="M 59.515625 10.40625 
L 59.515625 29.984375 
L 43.40625 29.984375 
L 43.40625 38.09375 
L 69.28125 38.09375 
L 69.28125 6.78125 
Q 63.578125 2.734375 56.6875 0.65625 
Q 49.8125 -1.421875 42 -1.421875 
Q 24.90625 -1.421875 15.25 8.5625 
Q 5.609375 18.5625 5.609375 36.375 
Q 5.609375 54.25 15.25 64.234375 
Q 24.90625 74.21875 42 74.21875 
Q 49.125 74.21875 55.546875 72.453125 
Q 61.96875 70.703125 67.390625 67.28125 
L 67.390625 56.78125 
Q 61.921875 61.421875 55.765625 63.765625 
Q 49.609375 66.109375 42.828125 66.109375 
Q 29.4375 66.109375 22.71875 58.640625 
Q 16.015625 51.171875 16.015625 36.375 
Q 16.015625 21.625 22.71875 14.15625 
Q 29.4375 6.6875 42.828125 6.6875 
Q 48.046875 6.6875 52.140625 7.59375 
Q 56.25 8.5 59.515625 10.40625 
z
" id="DejaVuSans-71"/>
      <path d="M 64.40625 67.28125 
L 64.40625 56.890625 
Q 59.421875 61.53125 53.78125 63.8125 
Q 48.140625 66.109375 41.796875 66.109375 
Q 29.296875 66.109375 22.65625 58.46875 
Q 16.015625 50.828125 16.015625 36.375 
Q 16.015625 21.96875 22.65625 14.328125 
Q 29.296875 6.6875 41.796875 6.6875 
Q 48.140625 6.6875 53.78125 8.984375 
Q 59.421875 11.28125 64.40625 15.921875 
L 64.40625 5.609375 
Q 59.234375 2.09375 53.4375 0.328125 
Q 47.65625 -1.421875 41.21875 -1.421875 
Q 24.65625 -1.421875 15.125 8.703125 
Q 5.609375 18.84375 5.609375 36.375 
Q 5.609375 53.953125 15.125 64.078125 
Q 24.65625 74.21875 41.21875 74.21875 
Q 47.75 74.21875 53.53125 72.484375 
Q 59.328125 70.75 64.40625 67.28125 
z
" id="DejaVuSans-67"/>
      <path d="M 30.609375 48.390625 
Q 23.390625 48.390625 19.1875 42.75 
Q 14.984375 37.109375 14.984375 27.296875 
Q 14.984375 17.484375 19.15625 11.84375 
Q 23.34375 6.203125 30.609375 6.203125 
Q 37.796875 6.203125 41.984375 11.859375 
Q 46.1875 17.53125 46.1875 27.296875 
Q 46.1875 37.015625 41.984375 42.703125 
Q 37.796875 48.390625 30.609375 48.390625 
z
M 30.609375 56 
Q 42.328125 56 49.015625 48.375 
Q 55.71875 40.765625 55.71875 27.296875 
Q 55.71875 13.875 49.015625 6.21875 
Q 42.328125 -1.421875 30.609375 -1.421875 
Q 18.84375 -1.421875 12.171875 6.21875 
Q 5.515625 13.875 5.515625 27.296875 
Q 5.515625 40.765625 12.171875 48.375 
Q 18.84375 56 30.609375 56 
z
" id="DejaVuSans-111"/>
      <path d="M 54.890625 33.015625 
L 54.890625 0 
L 45.90625 0 
L 45.90625 32.71875 
Q 45.90625 40.484375 42.875 44.328125 
Q 39.84375 48.1875 33.796875 48.1875 
Q 26.515625 48.1875 22.3125 43.546875 
Q 18.109375 38.921875 18.109375 30.90625 
L 18.109375 0 
L 9.078125 0 
L 9.078125 54.6875 
L 18.109375 54.6875 
L 18.109375 46.1875 
Q 21.34375 51.125 25.703125 53.5625 
Q 30.078125 56 35.796875 56 
Q 45.21875 56 50.046875 50.171875 
Q 54.890625 44.34375 54.890625 33.015625 
z
" id="DejaVuSans-110"/>
      <path d="M 19.671875 64.796875 
L 19.671875 37.40625 
L 32.078125 37.40625 
Q 38.96875 37.40625 42.71875 40.96875 
Q 46.484375 44.53125 46.484375 51.125 
Q 46.484375 57.671875 42.71875 61.234375 
Q 38.96875 64.796875 32.078125 64.796875 
z
M 9.8125 72.90625 
L 32.078125 72.90625 
Q 44.34375 72.90625 50.609375 67.359375 
Q 56.890625 61.8125 56.890625 51.125 
Q 56.890625 40.328125 50.609375 34.8125 
Q 44.34375 29.296875 32.078125 29.296875 
L 19.671875 29.296875 
L 19.671875 0 
L 9.8125 0 
z
" id="DejaVuSans-80"/>
      <path d="M 44.390625 34.1875 
Q 47.5625 33.109375 50.5625 29.59375 
Q 53.5625 26.078125 56.59375 19.921875 
L 66.609375 0 
L 56 0 
L 46.6875 18.703125 
Q 43.0625 26.03125 39.671875 28.421875 
Q 36.28125 30.8125 30.421875 30.8125 
L 19.671875 30.8125 
L 19.671875 0 
L 9.8125 0 
L 9.8125 72.90625 
L 32.078125 72.90625 
Q 44.578125 72.90625 50.734375 67.671875 
Q 56.890625 62.453125 56.890625 51.90625 
Q 56.890625 45.015625 53.6875 40.46875 
Q 50.484375 35.9375 44.390625 34.1875 
z
M 19.671875 64.796875 
L 19.671875 38.921875 
L 32.078125 38.921875 
Q 39.203125 38.921875 42.84375 42.21875 
Q 46.484375 45.515625 46.484375 51.90625 
Q 46.484375 58.296875 42.84375 61.546875 
Q 39.203125 64.796875 32.078125 64.796875 
z
" id="DejaVuSans-82"/>
      <path d="M 48.78125 52.59375 
L 48.78125 44.1875 
Q 44.96875 46.296875 41.140625 47.34375 
Q 37.3125 48.390625 33.40625 48.390625 
Q 24.65625 48.390625 19.8125 42.84375 
Q 14.984375 37.3125 14.984375 27.296875 
Q 14.984375 17.28125 19.8125 11.734375 
Q 24.65625 6.203125 33.40625 6.203125 
Q 37.3125 6.203125 41.140625 7.25 
Q 44.96875 8.296875 48.78125 10.40625 
L 48.78125 2.09375 
Q 45.015625 0.34375 40.984375 -0.53125 
Q 36.96875 -1.421875 32.421875 -1.421875 
Q 20.0625 -1.421875 12.78125 6.34375 
Q 5.515625 14.109375 5.515625 27.296875 
Q 5.515625 40.671875 12.859375 48.328125 
Q 20.21875 56 33.015625 56 
Q 37.15625 56 41.109375 55.140625 
Q 45.0625 54.296875 48.78125 52.59375 
z
" id="DejaVuSans-99"/>
      <path d="M 53.515625 70.515625 
L 53.515625 60.890625 
Q 47.90625 63.578125 42.921875 64.890625 
Q 37.9375 66.21875 33.296875 66.21875 
Q 25.25 66.21875 20.875 63.09375 
Q 16.5 59.96875 16.5 54.203125 
Q 16.5 49.359375 19.40625 46.890625 
Q 22.3125 44.4375 30.421875 42.921875 
L 36.375 41.703125 
Q 47.40625 39.59375 52.65625 34.296875 
Q 57.90625 29 57.90625 20.125 
Q 57.90625 9.515625 50.796875 4.046875 
Q 43.703125 -1.421875 29.984375 -1.421875 
Q 24.8125 -1.421875 18.96875 -0.25 
Q 13.140625 0.921875 6.890625 3.21875 
L 6.890625 13.375 
Q 12.890625 10.015625 18.65625 8.296875 
Q 24.421875 6.59375 29.984375 6.59375 
Q 38.421875 6.59375 43.015625 9.90625 
Q 47.609375 13.234375 47.609375 19.390625 
Q 47.609375 24.75 44.3125 27.78125 
Q 41.015625 30.8125 33.5 32.328125 
L 27.484375 33.5 
Q 16.453125 35.6875 11.515625 40.375 
Q 6.59375 45.0625 6.59375 53.421875 
Q 6.59375 63.09375 13.40625 68.65625 
Q 20.21875 74.21875 32.171875 74.21875 
Q 37.3125 74.21875 42.625 73.28125 
Q 47.953125 72.359375 53.515625 70.515625 
z
" id="DejaVuSans-83"/>
      <path d="M 45.40625 27.984375 
Q 45.40625 37.75 41.375 43.109375 
Q 37.359375 48.484375 30.078125 48.484375 
Q 22.859375 48.484375 18.828125 43.109375 
Q 14.796875 37.75 14.796875 27.984375 
Q 14.796875 18.265625 18.828125 12.890625 
Q 22.859375 7.515625 30.078125 7.515625 
Q 37.359375 7.515625 41.375 12.890625 
Q 45.40625 18.265625 45.40625 27.984375 
z
M 54.390625 6.78125 
Q 54.390625 -7.171875 48.1875 -13.984375 
Q 42 -20.796875 29.203125 -20.796875 
Q 24.46875 -20.796875 20.265625 -20.09375 
Q 16.0625 -19.390625 12.109375 -17.921875 
L 12.109375 -9.1875 
Q 16.0625 -11.328125 19.921875 -12.34375 
Q 23.78125 -13.375 27.78125 -13.375 
Q 36.625 -13.375 41.015625 -8.765625 
Q 45.40625 -4.15625 45.40625 5.171875 
L 45.40625 9.625 
Q 42.625 4.78125 38.28125 2.390625 
Q 33.9375 0 27.875 0 
Q 17.828125 0 11.671875 7.65625 
Q 5.515625 15.328125 5.515625 27.984375 
Q 5.515625 40.671875 11.671875 48.328125 
Q 17.828125 56 27.875 56 
Q 33.9375 56 38.28125 53.609375 
Q 42.625 51.21875 45.40625 46.390625 
L 45.40625 54.6875 
L 54.390625 54.6875 
z
" id="DejaVuSans-103"/>
     </defs>
     <use xlink:href="#DejaVuSans-73"/>
     <use x="29.492188" xlink:href="#DejaVuSans-100"/>
     <use x="92.96875" xlink:href="#DejaVuSans-101"/>
     <use x="154.492188" xlink:href="#DejaVuSans-97"/>
     <use x="215.771484" xlink:href="#DejaVuSans-108"/>
     <use x="243.554688" xlink:href="#DejaVuSans-71"/>
     <use x="321.044922" xlink:href="#DejaVuSans-97"/>
     <use x="382.324219" xlink:href="#DejaVuSans-115"/>
     <use x="434.423828" xlink:href="#DejaVuSans-67"/>
     <use x="504.248047" xlink:href="#DejaVuSans-111"/>
     <use x="565.429688" xlink:href="#DejaVuSans-110"/>
     <use x="628.808594" xlink:href="#DejaVuSans-115"/>
     <use x="680.908203" xlink:href="#DejaVuSans-116"/>
     <use x="720.117188" xlink:href="#DejaVuSans-80"/>
     <use x="778.669922" xlink:href="#DejaVuSans-114"/>
     <use x="817.533203" xlink:href="#DejaVuSans-101"/>
     <use x="879.056641" xlink:href="#DejaVuSans-115"/>
     <use x="931.15625" xlink:href="#DejaVuSans-115"/>
     <use x="983.255859" xlink:href="#DejaVuSans-117"/>
     <use x="1046.634766" xlink:href="#DejaVuSans-114"/>
     <use x="1085.498047" xlink:href="#DejaVuSans-101"/>
     <use x="1147.021484" xlink:href="#DejaVuSans-32"/>
     <use x="1178.808594" xlink:href="#DejaVuSans-82"/>
     <use x="1243.791016" xlink:href="#DejaVuSans-101"/>
     <use x="1305.314453" xlink:href="#DejaVuSans-97"/>
     <use x="1366.59375" xlink:href="#DejaVuSans-99"/>
     <use x="1421.574219" xlink:href="#DejaVuSans-116"/>
     <use x="1460.783203" xlink:href="#DejaVuSans-111"/>
     <use x="1521.964844" xlink:href="#DejaVuSans-114"/>
     <use x="1563.078125" xlink:href="#DejaVuSans-32"/>
     <use x="1594.865234" xlink:href="#DejaVuSans-83"/>
     <use x="1658.341797" xlink:href="#DejaVuSans-105"/>
     <use x="1686.125" xlink:href="#DejaVuSans-109"/>
     <use x="1783.537109" xlink:href="#DejaVuSans-117"/>
     <use x="1846.916016" xlink:href="#DejaVuSans-108"/>
     <use x="1874.699219" xlink:href="#DejaVuSans-97"/>
     <use x="1935.978516" xlink:href="#DejaVuSans-116"/>
     <use x="1975.1875" xlink:href="#DejaVuSans-105"/>
     <use x="2002.970703" xlink:href="#DejaVuSans-111"/>
     <use x="2064.152344" xlink:href="#DejaVuSans-110"/>
     <use x="2127.53125" xlink:href="#DejaVuSans-32"/>
     <use x="2159.318359" xlink:href="#DejaVuSans-40"/>
     <use x="2198.332031" xlink:href="#DejaVuSans-105"/>
     <use x="2226.115234" xlink:href="#DejaVuSans-103"/>
     <use x="2289.591797" xlink:href="#DejaVuSans-110"/>
     <use x="2352.970703" xlink:href="#DejaVuSans-105"/>
     <use x="2380.753906" xlink:href="#DejaVuSans-116"/>
     <use x="2419.962891" xlink:href="#DejaVuSans-105"/>
     <use x="2447.746094" xlink:href="#DejaVuSans-111"/>
     <use x="2508.927734" xlink:href="#DejaVuSans-110"/>
     <use x="2572.306641" xlink:href="#DejaVuSans-41"/>
    </g>
   </g>
   <g id="legend_1">
    <g id="text_18">
     <!-- Equivalence ratio -->
     <g transform="translate(62.328125 38.916562)scale(0.1 -0.1)">
      <defs>
       <path d="M 9.8125 72.90625 
L 55.90625 72.90625 
L 55.90625 64.59375 
L 19.671875 64.59375 
L 19.671875 43.015625 
L 54.390625 43.015625 
L 54.390625 34.71875 
L 19.671875 34.71875 
L 19.671875 8.296875 
L 56.78125 8.296875 
L 56.78125 0 
L 9.8125 0 
z
" id="DejaVuSans-69"/>
       <path d="M 14.796875 27.296875 
Q 14.796875 17.390625 18.875 11.75 
Q 22.953125 6.109375 30.078125 6.109375 
Q 37.203125 6.109375 41.296875 11.75 
Q 45.40625 17.390625 45.40625 27.296875 
Q 45.40625 37.203125 41.296875 42.84375 
Q 37.203125 48.484375 30.078125 48.484375 
Q 22.953125 48.484375 18.875 42.84375 
Q 14.796875 37.203125 14.796875 27.296875 
z
M 45.40625 8.203125 
Q 42.578125 3.328125 38.25 0.953125 
Q 33.9375 -1.421875 27.875 -1.421875 
Q 17.96875 -1.421875 11.734375 6.484375 
Q 5.515625 14.40625 5.515625 27.296875 
Q 5.515625 40.1875 11.734375 48.09375 
Q 17.96875 56 27.875 56 
Q 33.9375 56 38.25 53.625 
Q 42.578125 51.265625 45.40625 46.390625 
L 45.40625 54.6875 
L 54.390625 54.6875 
L 54.390625 -20.796875 
L 45.40625 -20.796875 
z
" id="DejaVuSans-113"/>
       <path d="M 2.984375 54.6875 
L 12.5 54.6875 
L 29.59375 8.796875 
L 46.6875 54.6875 
L 56.203125 54.6875 
L 35.6875 0 
L 23.484375 0 
z
" id="DejaVuSans-118"/>
      </defs>
      <use xlink:href="#DejaVuSans-69"/>
      <use x="63.183594" xlink:href="#DejaVuSans-113"/>
      <use x="126.660156" xlink:href="#DejaVuSans-117"/>
      <use x="190.039062" xlink:href="#DejaVuSans-105"/>
      <use x="217.822266" xlink:href="#DejaVuSans-118"/>
      <use x="277.001953" xlink:href="#DejaVuSans-97"/>
      <use x="338.28125" xlink:href="#DejaVuSans-108"/>
      <use x="366.064453" xlink:href="#DejaVuSans-101"/>
      <use x="427.587891" xlink:href="#DejaVuSans-110"/>
      <use x="490.966797" xlink:href="#DejaVuSans-99"/>
      <use x="545.947266" xlink:href="#DejaVuSans-101"/>
      <use x="607.470703" xlink:href="#DejaVuSans-32"/>
      <use x="639.257812" xlink:href="#DejaVuSans-114"/>
      <use x="680.371094" xlink:href="#DejaVuSans-97"/>
      <use x="741.650391" xlink:href="#DejaVuSans-116"/>
      <use x="780.859375" xlink:href="#DejaVuSans-105"/>
      <use x="808.642578" xlink:href="#DejaVuSans-111"/>
     </g>
    </g>
    <g id="line2d_23">
     <path d="M 83.86875 50.094687 
L 103.86875 50.094687 
" style="fill:none;stroke:#1f77b4;stroke-linecap:square;stroke-width:1.5;"/>
    </g>
    <g id="line2d_24"/>
    <g id="text_19">
     <!-- 0.4 -->
     <g transform="translate(111.86875 53.594687)scale(0.1 -0.1)">
      <use xlink:href="#DejaVuSans-48"/>
      <use x="63.623047" xlink:href="#DejaVuSans-46"/>
      <use x="95.410156" xlink:href="#DejaVuSans-52"/>
     </g>
    </g>
    <g id="line2d_25">
     <path d="M 83.86875 64.772812 
L 103.86875 64.772812 
" style="fill:none;stroke:#ff7f0e;stroke-linecap:square;stroke-width:1.5;"/>
    </g>
    <g id="line2d_26"/>
    <g id="text_20">
     <!-- 0.6 -->
     <g transform="translate(111.86875 68.272812)scale(0.1 -0.1)">
      <defs>
       <path d="M 33.015625 40.375 
Q 26.375 40.375 22.484375 35.828125 
Q 18.609375 31.296875 18.609375 23.390625 
Q 18.609375 15.53125 22.484375 10.953125 
Q 26.375 6.390625 33.015625 6.390625 
Q 39.65625 6.390625 43.53125 10.953125 
Q 47.40625 15.53125 47.40625 23.390625 
Q 47.40625 31.296875 43.53125 35.828125 
Q 39.65625 40.375 33.015625 40.375 
z
M 52.59375 71.296875 
L 52.59375 62.3125 
Q 48.875 64.0625 45.09375 64.984375 
Q 41.3125 65.921875 37.59375 65.921875 
Q 27.828125 65.921875 22.671875 59.328125 
Q 17.53125 52.734375 16.796875 39.40625 
Q 19.671875 43.65625 24.015625 45.921875 
Q 28.375 48.1875 33.59375 48.1875 
Q 44.578125 48.1875 50.953125 41.515625 
Q 57.328125 34.859375 57.328125 23.390625 
Q 57.328125 12.15625 50.6875 5.359375 
Q 44.046875 -1.421875 33.015625 -1.421875 
Q 20.359375 -1.421875 13.671875 8.265625 
Q 6.984375 17.96875 6.984375 36.375 
Q 6.984375 53.65625 15.1875 63.9375 
Q 23.390625 74.21875 37.203125 74.21875 
Q 40.921875 74.21875 44.703125 73.484375 
Q 48.484375 72.75 52.59375 71.296875 
z
" id="DejaVuSans-54"/>
      </defs>
      <use xlink:href="#DejaVuSans-48"/>
      <use x="63.623047" xlink:href="#DejaVuSans-46"/>
      <use x="95.410156" xlink:href="#DejaVuSans-54"/>
     </g>
    </g>
    <g id="line2d_27">
     <path d="M 83.86875 79.450937 
L 103.86875 79.450937 
" style="fill:none;stroke:#2ca02c;stroke-linecap:square;stroke-width:1.5;"/>
    </g>
    <g id="line2d_28"/>
    <g id="text_21">
     <!-- 0.8 -->
     <g transform="translate(111.86875 82.950937)scale(0.1 -0.1)">
      <defs>
       <path d="M 31.78125 34.625 
Q 24.75 34.625 20.71875 30.859375 
Q 16.703125 27.09375 16.703125 20.515625 
Q 16.703125 13.921875 20.71875 10.15625 
Q 24.75 6.390625 31.78125 6.390625 
Q 38.8125 6.390625 42.859375 10.171875 
Q 46.921875 13.96875 46.921875 20.515625 
Q 46.921875 27.09375 42.890625 30.859375 
Q 38.875 34.625 31.78125 34.625 
z
M 21.921875 38.8125 
Q 15.578125 40.375 12.03125 44.71875 
Q 8.5 49.078125 8.5 55.328125 
Q 8.5 64.0625 14.71875 69.140625 
Q 20.953125 74.21875 31.78125 74.21875 
Q 42.671875 74.21875 48.875 69.140625 
Q 55.078125 64.0625 55.078125 55.328125 
Q 55.078125 49.078125 51.53125 44.71875 
Q 48 40.375 41.703125 38.8125 
Q 48.828125 37.15625 52.796875 32.3125 
Q 56.78125 27.484375 56.78125 20.515625 
Q 56.78125 9.90625 50.3125 4.234375 
Q 43.84375 -1.421875 31.78125 -1.421875 
Q 19.734375 -1.421875 13.25 4.234375 
Q 6.78125 9.90625 6.78125 20.515625 
Q 6.78125 27.484375 10.78125 32.3125 
Q 14.796875 37.15625 21.921875 38.8125 
z
M 18.3125 54.390625 
Q 18.3125 48.734375 21.84375 45.5625 
Q 25.390625 42.390625 31.78125 42.390625 
Q 38.140625 42.390625 41.71875 45.5625 
Q 45.3125 48.734375 45.3125 54.390625 
Q 45.3125 60.0625 41.71875 63.234375 
Q 38.140625 66.40625 31.78125 66.40625 
Q 25.390625 66.40625 21.84375 63.234375 
Q 18.3125 60.0625 18.3125 54.390625 
z
" id="DejaVuSans-56"/>
      </defs>
      <use xlink:href="#DejaVuSans-48"/>
      <use x="63.623047" xlink:href="#DejaVuSans-46"/>
      <use x="95.410156" xlink:href="#DejaVuSans-56"/>
     </g>
    </g>
    <g id="line2d_29">
     <path d="M 83.86875 94.129062 
L 103.86875 94.129062 
" style="fill:none;stroke:#d62728;stroke-linecap:square;stroke-width:1.5;"/>
    </g>
    <g id="line2d_30"/>
    <g id="text_22">
     <!-- 1.0 -->
     <g transform="translate(111.86875 97.629062)scale(0.1 -0.1)">
      <use xlink:href="#DejaVuSans-49"/>
      <use x="63.623047" xlink:href="#DejaVuSans-46"/>
      <use x="95.410156" xlink:href="#DejaVuSans-48"/>
     </g>
    </g>
    <g id="line2d_31">
     <path d="M 83.86875 108.807187 
L 103.86875 108.807187 
" style="fill:none;stroke:#9467bd;stroke-linecap:square;stroke-width:1.5;"/>
    </g>
    <g id="line2d_32"/>
    <g id="text_23">
     <!-- 1.2 -->
     <g transform="translate(111.86875 112.307187)scale(0.1 -0.1)">
      <use xlink:href="#DejaVuSans-49"/>
      <use x="63.623047" xlink:href="#DejaVuSans-46"/>
      <use x="95.410156" xlink:href="#DejaVuSans-50"/>
     </g>
    </g>
    <g id="line2d_33">
     <path d="M 83.86875 123.485312 
L 103.86875 123.485312 
" style="fill:none;stroke:#8c564b;stroke-linecap:square;stroke-width:1.5;"/>
    </g>
    <g id="line2d_34"/>
    <g id="text_24">
     <!-- 1.4 -->
     <g transform="translate(111.86875 126.985312)scale(0.1 -0.1)">
      <use xlink:href="#DejaVuSans-49"/>
      <use x="63.623047" xlink:href="#DejaVuSans-46"/>
      <use x="95.410156" xlink:href="#DejaVuSans-52"/>
     </g>
    </g>
    <g id="line2d_35">
     <path d="M 83.86875 138.163437 
L 103.86875 138.163437 
" style="fill:none;stroke:#e377c2;stroke-linecap:square;stroke-width:1.5;"/>
    </g>
    <g id="line2d_36"/>
    <g id="text_25">
     <!-- 1.6 -->
     <g transform="translate(111.86875 141.663437)scale(0.1 -0.1)">
      <use xlink:href="#DejaVuSans-49"/>
      <use x="63.623047" xlink:href="#DejaVuSans-46"/>
      <use x="95.410156" xlink:href="#DejaVuSans-54"/>
     </g>
    </g>
    <g id="line2d_37">
     <path d="M 83.86875 152.841562 
L 103.86875 152.841562 
" style="fill:none;stroke:#7f7f7f;stroke-linecap:square;stroke-width:1.5;"/>
    </g>
    <g id="line2d_38"/>
    <g id="text_26">
     <!-- 1.8 -->
     <g transform="translate(111.86875 156.341562)scale(0.1 -0.1)">
      <use xlink:href="#DejaVuSans-49"/>
      <use x="63.623047" xlink:href="#DejaVuSans-46"/>
      <use x="95.410156" xlink:href="#DejaVuSans-56"/>
     </g>
    </g>
   </g>
  </g>
 </g>
 <defs>
  <clipPath id="p5d1eec9c46">
   <rect height="434.88" width="446.4" x="53.328125" y="22.318125"/>
  </clipPath>
 </defs>
</svg>
