<?xml version="1.0" encoding="utf-8" standalone="no"?>
<!DOCTYPE svg PUBLIC "-//W3C//DTD SVG 1.1//EN"
  "http://www.w3.org/Graphics/SVG/1.1/DTD/svg11.dtd">
<!-- Created with matplotlib (https://matplotlib.org/) -->
<svg height="370.91625pt" version="1.1" viewBox="0 0 395.328125 370.91625" width="395.328125pt" xmlns="http://www.w3.org/2000/svg" xmlns:xlink="http://www.w3.org/1999/xlink">
 <metadata>
  <rdf:RDF xmlns:cc="http://creativecommons.org/ns#" xmlns:dc="http://purl.org/dc/elements/1.1/" xmlns:rdf="http://www.w3.org/1999/02/22-rdf-syntax-ns#">
   <cc:Work>
    <dc:type rdf:resource="http://purl.org/dc/dcmitype/StillImage"/>
    <dc:date>2020-12-23T00:28:50.632453</dc:date>
    <dc:format>image/svg+xml</dc:format>
    <dc:creator>
     <cc:Agent>
      <dc:title>Matplotlib v3.3.3, https://matplotlib.org/</dc:title>
     </cc:Agent>
    </dc:creator>
   </cc:Work>
  </rdf:RDF>
 </metadata>
 <defs>
  <style type="text/css">*{stroke-linecap:butt;stroke-linejoin:round;}</style>
 </defs>
 <g id="figure_1">
  <g id="patch_1">
   <path d="M 0 370.91625 
L 395.328125 370.91625 
L 395.328125 0 
L 0 0 
z
" style="fill:none;"/>
  </g>
  <g id="axes_1">
   <g id="patch_2">
    <path d="M 53.328125 333.36 
L 388.128125 333.36 
L 388.128125 7.2 
L 53.328125 7.2 
z
" style="fill:#ffffff;"/>
   </g>
   <g id="matplotlib.axis_1">
    <g id="xtick_1">
     <g id="line2d_1">
      <defs>
       <path d="M 0 0 
L 0 3.5 
" id="m31061cf747" style="stroke:#000000;stroke-width:0.8;"/>
      </defs>
      <g>
       <use style="stroke:#000000;stroke-width:0.8;" x="68.546307" xlink:href="#m31061cf747" y="333.36"/>
      </g>
     </g>
     <g id="text_1">
      <!-- 0 -->
      <g transform="translate(65.365057 347.958438)scale(0.1 -0.1)">
       <defs>
        <path d="M 31.78125 66.40625 
Q 24.171875 66.40625 20.328125 58.90625 
Q 16.5 51.421875 16.5 36.375 
Q 16.5 21.390625 20.328125 13.890625 
Q 24.171875 6.390625 31.78125 6.390625 
Q 39.453125 6.390625 43.28125 13.890625 
Q 47.125 21.390625 47.125 36.375 
Q 47.125 51.421875 43.28125 58.90625 
Q 39.453125 66.40625 31.78125 66.40625 
z
M 31.78125 74.21875 
Q 44.046875 74.21875 50.515625 64.515625 
Q 56.984375 54.828125 56.984375 36.375 
Q 56.984375 17.96875 50.515625 8.265625 
Q 44.046875 -1.421875 31.78125 -1.421875 
Q 19.53125 -1.421875 13.0625 8.265625 
Q 6.59375 17.96875 6.59375 36.375 
Q 6.59375 54.828125 13.0625 64.515625 
Q 19.53125 74.21875 31.78125 74.21875 
z
" id="DejaVuSans-48"/>
       </defs>
       <use xlink:href="#DejaVuSans-48"/>
      </g>
     </g>
    </g>
    <g id="xtick_2">
     <g id="line2d_2">
      <g>
       <use style="stroke:#000000;stroke-width:0.8;" x="119.27358" xlink:href="#m31061cf747" y="333.36"/>
      </g>
     </g>
     <g id="text_2">
      <!-- 20 -->
      <g transform="translate(112.91108 347.958438)scale(0.1 -0.1)">
       <defs>
        <path d="M 19.1875 8.296875 
L 53.609375 8.296875 
L 53.609375 0 
L 7.328125 0 
L 7.328125 8.296875 
Q 12.9375 14.109375 22.625 23.890625 
Q 32.328125 33.6875 34.8125 36.53125 
Q 39.546875 41.84375 41.421875 45.53125 
Q 43.3125 49.21875 43.3125 52.78125 
Q 43.3125 58.59375 39.234375 62.25 
Q 35.15625 65.921875 28.609375 65.921875 
Q 23.96875 65.921875 18.8125 64.3125 
Q 13.671875 62.703125 7.8125 59.421875 
L 7.8125 69.390625 
Q 13.765625 71.78125 18.9375 73 
Q 24.125 74.21875 28.421875 74.21875 
Q 39.75 74.21875 46.484375 68.546875 
Q 53.21875 62.890625 53.21875 53.421875 
Q 53.21875 48.921875 51.53125 44.890625 
Q 49.859375 40.875 45.40625 35.40625 
Q 44.1875 33.984375 37.640625 27.21875 
Q 31.109375 20.453125 19.1875 8.296875 
z
" id="DejaVuSans-50"/>
       </defs>
       <use xlink:href="#DejaVuSans-50"/>
       <use x="63.623047" xlink:href="#DejaVuSans-48"/>
      </g>
     </g>
    </g>
    <g id="xtick_3">
     <g id="line2d_3">
      <g>
       <use style="stroke:#000000;stroke-width:0.8;" x="170.000852" xlink:href="#m31061cf747" y="333.36"/>
      </g>
     </g>
     <g id="text_3">
      <!-- 40 -->
      <g transform="translate(163.638352 347.958438)scale(0.1 -0.1)">
       <defs>
        <path d="M 37.796875 64.3125 
L 12.890625 25.390625 
L 37.796875 25.390625 
z
M 35.203125 72.90625 
L 47.609375 72.90625 
L 47.609375 25.390625 
L 58.015625 25.390625 
L 58.015625 17.1875 
L 47.609375 17.1875 
L 47.609375 0 
L 37.796875 0 
L 37.796875 17.1875 
L 4.890625 17.1875 
L 4.890625 26.703125 
z
" id="DejaVuSans-52"/>
       </defs>
       <use xlink:href="#DejaVuSans-52"/>
       <use x="63.623047" xlink:href="#DejaVuSans-48"/>
      </g>
     </g>
    </g>
    <g id="xtick_4">
     <g id="line2d_4">
      <g>
       <use style="stroke:#000000;stroke-width:0.8;" x="220.728125" xlink:href="#m31061cf747" y="333.36"/>
      </g>
     </g>
     <g id="text_4">
      <!-- 60 -->
      <g transform="translate(214.365625 347.958438)scale(0.1 -0.1)">
       <defs>
        <path d="M 33.015625 40.375 
Q 26.375 40.375 22.484375 35.828125 
Q 18.609375 31.296875 18.609375 23.390625 
Q 18.609375 15.53125 22.484375 10.953125 
Q 26.375 6.390625 33.015625 6.390625 
Q 39.65625 6.390625 43.53125 10.953125 
Q 47.40625 15.53125 47.40625 23.390625 
Q 47.40625 31.296875 43.53125 35.828125 
Q 39.65625 40.375 33.015625 40.375 
z
M 52.59375 71.296875 
L 52.59375 62.3125 
Q 48.875 64.0625 45.09375 64.984375 
Q 41.3125 65.921875 37.59375 65.921875 
Q 27.828125 65.921875 22.671875 59.328125 
Q 17.53125 52.734375 16.796875 39.40625 
Q 19.671875 43.65625 24.015625 45.921875 
Q 28.375 48.1875 33.59375 48.1875 
Q 44.578125 48.1875 50.953125 41.515625 
Q 57.328125 34.859375 57.328125 23.390625 
Q 57.328125 12.15625 50.6875 5.359375 
Q 44.046875 -1.421875 33.015625 -1.421875 
Q 20.359375 -1.421875 13.671875 8.265625 
Q 6.984375 17.96875 6.984375 36.375 
Q 6.984375 53.65625 15.1875 63.9375 
Q 23.390625 74.21875 37.203125 74.21875 
Q 40.921875 74.21875 44.703125 73.484375 
Q 48.484375 72.75 52.59375 71.296875 
z
" id="DejaVuSans-54"/>
       </defs>
       <use xlink:href="#DejaVuSans-54"/>
       <use x="63.623047" xlink:href="#DejaVuSans-48"/>
      </g>
     </g>
    </g>
    <g id="xtick_5">
     <g id="line2d_5">
      <g>
       <use style="stroke:#000000;stroke-width:0.8;" x="271.455398" xlink:href="#m31061cf747" y="333.36"/>
      </g>
     </g>
     <g id="text_5">
      <!-- 80 -->
      <g transform="translate(265.092898 347.958438)scale(0.1 -0.1)">
       <defs>
        <path d="M 31.78125 34.625 
Q 24.75 34.625 20.71875 30.859375 
Q 16.703125 27.09375 16.703125 20.515625 
Q 16.703125 13.921875 20.71875 10.15625 
Q 24.75 6.390625 31.78125 6.390625 
Q 38.8125 6.390625 42.859375 10.171875 
Q 46.921875 13.96875 46.921875 20.515625 
Q 46.921875 27.09375 42.890625 30.859375 
Q 38.875 34.625 31.78125 34.625 
z
M 21.921875 38.8125 
Q 15.578125 40.375 12.03125 44.71875 
Q 8.5 49.078125 8.5 55.328125 
Q 8.5 64.0625 14.71875 69.140625 
Q 20.953125 74.21875 31.78125 74.21875 
Q 42.671875 74.21875 48.875 69.140625 
Q 55.078125 64.0625 55.078125 55.328125 
Q 55.078125 49.078125 51.53125 44.71875 
Q 48 40.375 41.703125 38.8125 
Q 48.828125 37.15625 52.796875 32.3125 
Q 56.78125 27.484375 56.78125 20.515625 
Q 56.78125 9.90625 50.3125 4.234375 
Q 43.84375 -1.421875 31.78125 -1.421875 
Q 19.734375 -1.421875 13.25 4.234375 
Q 6.78125 9.90625 6.78125 20.515625 
Q 6.78125 27.484375 10.78125 32.3125 
Q 14.796875 37.15625 21.921875 38.8125 
z
M 18.3125 54.390625 
Q 18.3125 48.734375 21.84375 45.5625 
Q 25.390625 42.390625 31.78125 42.390625 
Q 38.140625 42.390625 41.71875 45.5625 
Q 45.3125 48.734375 45.3125 54.390625 
Q 45.3125 60.0625 41.71875 63.234375 
Q 38.140625 66.40625 31.78125 66.40625 
Q 25.390625 66.40625 21.84375 63.234375 
Q 18.3125 60.0625 18.3125 54.390625 
z
" id="DejaVuSans-56"/>
       </defs>
       <use xlink:href="#DejaVuSans-56"/>
       <use x="63.623047" xlink:href="#DejaVuSans-48"/>
      </g>
     </g>
    </g>
    <g id="xtick_6">
     <g id="line2d_6">
      <g>
       <use style="stroke:#000000;stroke-width:0.8;" x="322.18267" xlink:href="#m31061cf747" y="333.36"/>
      </g>
     </g>
     <g id="text_6">
      <!-- 100 -->
      <g transform="translate(312.63892 347.958438)scale(0.1 -0.1)">
       <defs>
        <path d="M 12.40625 8.296875 
L 28.515625 8.296875 
L 28.515625 63.921875 
L 10.984375 60.40625 
L 10.984375 69.390625 
L 28.421875 72.90625 
L 38.28125 72.90625 
L 38.28125 8.296875 
L 54.390625 8.296875 
L 54.390625 0 
L 12.40625 0 
z
" id="DejaVuSans-49"/>
       </defs>
       <use xlink:href="#DejaVuSans-49"/>
       <use x="63.623047" xlink:href="#DejaVuSans-48"/>
       <use x="127.246094" xlink:href="#DejaVuSans-48"/>
      </g>
     </g>
    </g>
    <g id="xtick_7">
     <g id="line2d_7">
      <g>
       <use style="stroke:#000000;stroke-width:0.8;" x="372.909943" xlink:href="#m31061cf747" y="333.36"/>
      </g>
     </g>
     <g id="text_7">
      <!-- 120 -->
      <g transform="translate(363.366193 347.958438)scale(0.1 -0.1)">
       <use xlink:href="#DejaVuSans-49"/>
       <use x="63.623047" xlink:href="#DejaVuSans-50"/>
       <use x="127.246094" xlink:href="#DejaVuSans-48"/>
      </g>
     </g>
    </g>
    <g id="text_8">
     <!-- Position (mm) -->
     <g transform="translate(186.032813 361.636562)scale(0.1 -0.1)">
      <defs>
       <path d="M 19.671875 64.796875 
L 19.671875 37.40625 
L 32.078125 37.40625 
Q 38.96875 37.40625 42.71875 40.96875 
Q 46.484375 44.53125 46.484375 51.125 
Q 46.484375 57.671875 42.71875 61.234375 
Q 38.96875 64.796875 32.078125 64.796875 
z
M 9.8125 72.90625 
L 32.078125 72.90625 
Q 44.34375 72.90625 50.609375 67.359375 
Q 56.890625 61.8125 56.890625 51.125 
Q 56.890625 40.328125 50.609375 34.8125 
Q 44.34375 29.296875 32.078125 29.296875 
L 19.671875 29.296875 
L 19.671875 0 
L 9.8125 0 
z
" id="DejaVuSans-80"/>
       <path d="M 30.609375 48.390625 
Q 23.390625 48.390625 19.1875 42.75 
Q 14.984375 37.109375 14.984375 27.296875 
Q 14.984375 17.484375 19.15625 11.84375 
Q 23.34375 6.203125 30.609375 6.203125 
Q 37.796875 6.203125 41.984375 11.859375 
Q 46.1875 17.53125 46.1875 27.296875 
Q 46.1875 37.015625 41.984375 42.703125 
Q 37.796875 48.390625 30.609375 48.390625 
z
M 30.609375 56 
Q 42.328125 56 49.015625 48.375 
Q 55.71875 40.765625 55.71875 27.296875 
Q 55.71875 13.875 49.015625 6.21875 
Q 42.328125 -1.421875 30.609375 -1.421875 
Q 18.84375 -1.421875 12.171875 6.21875 
Q 5.515625 13.875 5.515625 27.296875 
Q 5.515625 40.765625 12.171875 48.375 
Q 18.84375 56 30.609375 56 
z
" id="DejaVuSans-111"/>
       <path d="M 44.28125 53.078125 
L 44.28125 44.578125 
Q 40.484375 46.53125 36.375 47.5 
Q 32.28125 48.484375 27.875 48.484375 
Q 21.1875 48.484375 17.84375 46.4375 
Q 14.5 44.390625 14.5 40.28125 
Q 14.5 37.15625 16.890625 35.375 
Q 19.28125 33.59375 26.515625 31.984375 
L 29.59375 31.296875 
Q 39.15625 29.25 43.1875 25.515625 
Q 47.21875 21.78125 47.21875 15.09375 
Q 47.21875 7.46875 41.1875 3.015625 
Q 35.15625 -1.421875 24.609375 -1.421875 
Q 20.21875 -1.421875 15.453125 -0.5625 
Q 10.6875 0.296875 5.421875 2 
L 5.421875 11.28125 
Q 10.40625 8.6875 15.234375 7.390625 
Q 20.0625 6.109375 24.8125 6.109375 
Q 31.15625 6.109375 34.5625 8.28125 
Q 37.984375 10.453125 37.984375 14.40625 
Q 37.984375 18.0625 35.515625 20.015625 
Q 33.0625 21.96875 24.703125 23.78125 
L 21.578125 24.515625 
Q 13.234375 26.265625 9.515625 29.90625 
Q 5.8125 33.546875 5.8125 39.890625 
Q 5.8125 47.609375 11.28125 51.796875 
Q 16.75 56 26.8125 56 
Q 31.78125 56 36.171875 55.265625 
Q 40.578125 54.546875 44.28125 53.078125 
z
" id="DejaVuSans-115"/>
       <path d="M 9.421875 54.6875 
L 18.40625 54.6875 
L 18.40625 0 
L 9.421875 0 
z
M 9.421875 75.984375 
L 18.40625 75.984375 
L 18.40625 64.59375 
L 9.421875 64.59375 
z
" id="DejaVuSans-105"/>
       <path d="M 18.3125 70.21875 
L 18.3125 54.6875 
L 36.8125 54.6875 
L 36.8125 47.703125 
L 18.3125 47.703125 
L 18.3125 18.015625 
Q 18.3125 11.328125 20.140625 9.421875 
Q 21.96875 7.515625 27.59375 7.515625 
L 36.8125 7.515625 
L 36.8125 0 
L 27.59375 0 
Q 17.1875 0 13.234375 3.875 
Q 9.28125 7.765625 9.28125 18.015625 
L 9.28125 47.703125 
L 2.6875 47.703125 
L 2.6875 54.6875 
L 9.28125 54.6875 
L 9.28125 70.21875 
z
" id="DejaVuSans-116"/>
       <path d="M 54.890625 33.015625 
L 54.890625 0 
L 45.90625 0 
L 45.90625 32.71875 
Q 45.90625 40.484375 42.875 44.328125 
Q 39.84375 48.1875 33.796875 48.1875 
Q 26.515625 48.1875 22.3125 43.546875 
Q 18.109375 38.921875 18.109375 30.90625 
L 18.109375 0 
L 9.078125 0 
L 9.078125 54.6875 
L 18.109375 54.6875 
L 18.109375 46.1875 
Q 21.34375 51.125 25.703125 53.5625 
Q 30.078125 56 35.796875 56 
Q 45.21875 56 50.046875 50.171875 
Q 54.890625 44.34375 54.890625 33.015625 
z
" id="DejaVuSans-110"/>
       <path id="DejaVuSans-32"/>
       <path d="M 31 75.875 
Q 24.46875 64.65625 21.28125 53.65625 
Q 18.109375 42.671875 18.109375 31.390625 
Q 18.109375 20.125 21.3125 9.0625 
Q 24.515625 -2 31 -13.1875 
L 23.1875 -13.1875 
Q 15.875 -1.703125 12.234375 9.375 
Q 8.59375 20.453125 8.59375 31.390625 
Q 8.59375 42.28125 12.203125 53.3125 
Q 15.828125 64.359375 23.1875 75.875 
z
" id="DejaVuSans-40"/>
       <path d="M 52 44.1875 
Q 55.375 50.25 60.0625 53.125 
Q 64.75 56 71.09375 56 
Q 79.640625 56 84.28125 50.015625 
Q 88.921875 44.046875 88.921875 33.015625 
L 88.921875 0 
L 79.890625 0 
L 79.890625 32.71875 
Q 79.890625 40.578125 77.09375 44.375 
Q 74.3125 48.1875 68.609375 48.1875 
Q 61.625 48.1875 57.5625 43.546875 
Q 53.515625 38.921875 53.515625 30.90625 
L 53.515625 0 
L 44.484375 0 
L 44.484375 32.71875 
Q 44.484375 40.625 41.703125 44.40625 
Q 38.921875 48.1875 33.109375 48.1875 
Q 26.21875 48.1875 22.15625 43.53125 
Q 18.109375 38.875 18.109375 30.90625 
L 18.109375 0 
L 9.078125 0 
L 9.078125 54.6875 
L 18.109375 54.6875 
L 18.109375 46.1875 
Q 21.1875 51.21875 25.484375 53.609375 
Q 29.78125 56 35.6875 56 
Q 41.65625 56 45.828125 52.96875 
Q 50 49.953125 52 44.1875 
z
" id="DejaVuSans-109"/>
       <path d="M 8.015625 75.875 
L 15.828125 75.875 
Q 23.140625 64.359375 26.78125 53.3125 
Q 30.421875 42.28125 30.421875 31.390625 
Q 30.421875 20.453125 26.78125 9.375 
Q 23.140625 -1.703125 15.828125 -13.1875 
L 8.015625 -13.1875 
Q 14.5 -2 17.703125 9.0625 
Q 20.90625 20.125 20.90625 31.390625 
Q 20.90625 42.671875 17.703125 53.65625 
Q 14.5 64.65625 8.015625 75.875 
z
" id="DejaVuSans-41"/>
      </defs>
      <use xlink:href="#DejaVuSans-80"/>
      <use x="56.677734" xlink:href="#DejaVuSans-111"/>
      <use x="117.859375" xlink:href="#DejaVuSans-115"/>
      <use x="169.958984" xlink:href="#DejaVuSans-105"/>
      <use x="197.742188" xlink:href="#DejaVuSans-116"/>
      <use x="236.951172" xlink:href="#DejaVuSans-105"/>
      <use x="264.734375" xlink:href="#DejaVuSans-111"/>
      <use x="325.916016" xlink:href="#DejaVuSans-110"/>
      <use x="389.294922" xlink:href="#DejaVuSans-32"/>
      <use x="421.082031" xlink:href="#DejaVuSans-40"/>
      <use x="460.095703" xlink:href="#DejaVuSans-109"/>
      <use x="557.507812" xlink:href="#DejaVuSans-109"/>
      <use x="654.919922" xlink:href="#DejaVuSans-41"/>
     </g>
    </g>
   </g>
   <g id="matplotlib.axis_2">
    <g id="ytick_1">
     <g id="line2d_8">
      <defs>
       <path d="M 0 0 
L -3.5 0 
" id="mc7ac979246" style="stroke:#000000;stroke-width:0.8;"/>
      </defs>
      <g>
       <use style="stroke:#000000;stroke-width:0.8;" x="53.328125" xlink:href="#mc7ac979246" y="291.670047"/>
      </g>
     </g>
     <g id="text_9">
      <!-- 500 -->
      <g transform="translate(27.240625 295.469265)scale(0.1 -0.1)">
       <defs>
        <path d="M 10.796875 72.90625 
L 49.515625 72.90625 
L 49.515625 64.59375 
L 19.828125 64.59375 
L 19.828125 46.734375 
Q 21.96875 47.46875 24.109375 47.828125 
Q 26.265625 48.1875 28.421875 48.1875 
Q 40.625 48.1875 47.75 41.5 
Q 54.890625 34.8125 54.890625 23.390625 
Q 54.890625 11.625 47.5625 5.09375 
Q 40.234375 -1.421875 26.90625 -1.421875 
Q 22.3125 -1.421875 17.546875 -0.640625 
Q 12.796875 0.140625 7.71875 1.703125 
L 7.71875 11.625 
Q 12.109375 9.234375 16.796875 8.0625 
Q 21.484375 6.890625 26.703125 6.890625 
Q 35.15625 6.890625 40.078125 11.328125 
Q 45.015625 15.765625 45.015625 23.390625 
Q 45.015625 31 40.078125 35.4375 
Q 35.15625 39.890625 26.703125 39.890625 
Q 22.75 39.890625 18.8125 39.015625 
Q 14.890625 38.140625 10.796875 36.28125 
z
" id="DejaVuSans-53"/>
       </defs>
       <use xlink:href="#DejaVuSans-53"/>
       <use x="63.623047" xlink:href="#DejaVuSans-48"/>
       <use x="127.246094" xlink:href="#DejaVuSans-48"/>
      </g>
     </g>
    </g>
    <g id="ytick_2">
     <g id="line2d_9">
      <g>
       <use style="stroke:#000000;stroke-width:0.8;" x="53.328125" xlink:href="#mc7ac979246" y="224.508799"/>
      </g>
     </g>
     <g id="text_10">
      <!-- 1000 -->
      <g transform="translate(20.878125 228.308018)scale(0.1 -0.1)">
       <use xlink:href="#DejaVuSans-49"/>
       <use x="63.623047" xlink:href="#DejaVuSans-48"/>
       <use x="127.246094" xlink:href="#DejaVuSans-48"/>
       <use x="190.869141" xlink:href="#DejaVuSans-48"/>
      </g>
     </g>
    </g>
    <g id="ytick_3">
     <g id="line2d_10">
      <g>
       <use style="stroke:#000000;stroke-width:0.8;" x="53.328125" xlink:href="#mc7ac979246" y="157.347552"/>
      </g>
     </g>
     <g id="text_11">
      <!-- 1500 -->
      <g transform="translate(20.878125 161.146771)scale(0.1 -0.1)">
       <use xlink:href="#DejaVuSans-49"/>
       <use x="63.623047" xlink:href="#DejaVuSans-53"/>
       <use x="127.246094" xlink:href="#DejaVuSans-48"/>
       <use x="190.869141" xlink:href="#DejaVuSans-48"/>
      </g>
     </g>
    </g>
    <g id="ytick_4">
     <g id="line2d_11">
      <g>
       <use style="stroke:#000000;stroke-width:0.8;" x="53.328125" xlink:href="#mc7ac979246" y="90.186305"/>
      </g>
     </g>
     <g id="text_12">
      <!-- 2000 -->
      <g transform="translate(20.878125 93.985524)scale(0.1 -0.1)">
       <use xlink:href="#DejaVuSans-50"/>
       <use x="63.623047" xlink:href="#DejaVuSans-48"/>
       <use x="127.246094" xlink:href="#DejaVuSans-48"/>
       <use x="190.869141" xlink:href="#DejaVuSans-48"/>
      </g>
     </g>
    </g>
    <g id="ytick_5">
     <g id="line2d_12">
      <g>
       <use style="stroke:#000000;stroke-width:0.8;" x="53.328125" xlink:href="#mc7ac979246" y="23.025058"/>
      </g>
     </g>
     <g id="text_13">
      <!-- 2500 -->
      <g transform="translate(20.878125 26.824277)scale(0.1 -0.1)">
       <use xlink:href="#DejaVuSans-50"/>
       <use x="63.623047" xlink:href="#DejaVuSans-53"/>
       <use x="127.246094" xlink:href="#DejaVuSans-48"/>
       <use x="190.869141" xlink:href="#DejaVuSans-48"/>
      </g>
     </g>
    </g>
    <g id="text_14">
     <!-- Temperature (K) -->
     <g transform="translate(14.798438 210.719062)rotate(-90)scale(0.1 -0.1)">
      <defs>
       <path d="M -0.296875 72.90625 
L 61.375 72.90625 
L 61.375 64.59375 
L 35.5 64.59375 
L 35.5 0 
L 25.59375 0 
L 25.59375 64.59375 
L -0.296875 64.59375 
z
" id="DejaVuSans-84"/>
       <path d="M 56.203125 29.59375 
L 56.203125 25.203125 
L 14.890625 25.203125 
Q 15.484375 15.921875 20.484375 11.0625 
Q 25.484375 6.203125 34.421875 6.203125 
Q 39.59375 6.203125 44.453125 7.46875 
Q 49.3125 8.734375 54.109375 11.28125 
L 54.109375 2.78125 
Q 49.265625 0.734375 44.1875 -0.34375 
Q 39.109375 -1.421875 33.890625 -1.421875 
Q 20.796875 -1.421875 13.15625 6.1875 
Q 5.515625 13.8125 5.515625 26.8125 
Q 5.515625 40.234375 12.765625 48.109375 
Q 20.015625 56 32.328125 56 
Q 43.359375 56 49.78125 48.890625 
Q 56.203125 41.796875 56.203125 29.59375 
z
M 47.21875 32.234375 
Q 47.125 39.59375 43.09375 43.984375 
Q 39.0625 48.390625 32.421875 48.390625 
Q 24.90625 48.390625 20.390625 44.140625 
Q 15.875 39.890625 15.1875 32.171875 
z
" id="DejaVuSans-101"/>
       <path d="M 18.109375 8.203125 
L 18.109375 -20.796875 
L 9.078125 -20.796875 
L 9.078125 54.6875 
L 18.109375 54.6875 
L 18.109375 46.390625 
Q 20.953125 51.265625 25.265625 53.625 
Q 29.59375 56 35.59375 56 
Q 45.5625 56 51.78125 48.09375 
Q 58.015625 40.1875 58.015625 27.296875 
Q 58.015625 14.40625 51.78125 6.484375 
Q 45.5625 -1.421875 35.59375 -1.421875 
Q 29.59375 -1.421875 25.265625 0.953125 
Q 20.953125 3.328125 18.109375 8.203125 
z
M 48.6875 27.296875 
Q 48.6875 37.203125 44.609375 42.84375 
Q 40.53125 48.484375 33.40625 48.484375 
Q 26.265625 48.484375 22.1875 42.84375 
Q 18.109375 37.203125 18.109375 27.296875 
Q 18.109375 17.390625 22.1875 11.75 
Q 26.265625 6.109375 33.40625 6.109375 
Q 40.53125 6.109375 44.609375 11.75 
Q 48.6875 17.390625 48.6875 27.296875 
z
" id="DejaVuSans-112"/>
       <path d="M 41.109375 46.296875 
Q 39.59375 47.171875 37.8125 47.578125 
Q 36.03125 48 33.890625 48 
Q 26.265625 48 22.1875 43.046875 
Q 18.109375 38.09375 18.109375 28.8125 
L 18.109375 0 
L 9.078125 0 
L 9.078125 54.6875 
L 18.109375 54.6875 
L 18.109375 46.1875 
Q 20.953125 51.171875 25.484375 53.578125 
Q 30.03125 56 36.53125 56 
Q 37.453125 56 38.578125 55.875 
Q 39.703125 55.765625 41.0625 55.515625 
z
" id="DejaVuSans-114"/>
       <path d="M 34.28125 27.484375 
Q 23.390625 27.484375 19.1875 25 
Q 14.984375 22.515625 14.984375 16.5 
Q 14.984375 11.71875 18.140625 8.90625 
Q 21.296875 6.109375 26.703125 6.109375 
Q 34.1875 6.109375 38.703125 11.40625 
Q 43.21875 16.703125 43.21875 25.484375 
L 43.21875 27.484375 
z
M 52.203125 31.203125 
L 52.203125 0 
L 43.21875 0 
L 43.21875 8.296875 
Q 40.140625 3.328125 35.546875 0.953125 
Q 30.953125 -1.421875 24.3125 -1.421875 
Q 15.921875 -1.421875 10.953125 3.296875 
Q 6 8.015625 6 15.921875 
Q 6 25.140625 12.171875 29.828125 
Q 18.359375 34.515625 30.609375 34.515625 
L 43.21875 34.515625 
L 43.21875 35.40625 
Q 43.21875 41.609375 39.140625 45 
Q 35.0625 48.390625 27.6875 48.390625 
Q 23 48.390625 18.546875 47.265625 
Q 14.109375 46.140625 10.015625 43.890625 
L 10.015625 52.203125 
Q 14.9375 54.109375 19.578125 55.046875 
Q 24.21875 56 28.609375 56 
Q 40.484375 56 46.34375 49.84375 
Q 52.203125 43.703125 52.203125 31.203125 
z
" id="DejaVuSans-97"/>
       <path d="M 8.5 21.578125 
L 8.5 54.6875 
L 17.484375 54.6875 
L 17.484375 21.921875 
Q 17.484375 14.15625 20.5 10.265625 
Q 23.53125 6.390625 29.59375 6.390625 
Q 36.859375 6.390625 41.078125 11.03125 
Q 45.3125 15.671875 45.3125 23.6875 
L 45.3125 54.6875 
L 54.296875 54.6875 
L 54.296875 0 
L 45.3125 0 
L 45.3125 8.40625 
Q 42.046875 3.421875 37.71875 1 
Q 33.40625 -1.421875 27.6875 -1.421875 
Q 18.265625 -1.421875 13.375 4.4375 
Q 8.5 10.296875 8.5 21.578125 
z
M 31.109375 56 
z
" id="DejaVuSans-117"/>
       <path d="M 9.8125 72.90625 
L 19.671875 72.90625 
L 19.671875 42.09375 
L 52.390625 72.90625 
L 65.09375 72.90625 
L 28.90625 38.921875 
L 67.671875 0 
L 54.6875 0 
L 19.671875 35.109375 
L 19.671875 0 
L 9.8125 0 
z
" id="DejaVuSans-75"/>
      </defs>
      <use xlink:href="#DejaVuSans-84"/>
      <use x="44.083984" xlink:href="#DejaVuSans-101"/>
      <use x="105.607422" xlink:href="#DejaVuSans-109"/>
      <use x="203.019531" xlink:href="#DejaVuSans-112"/>
      <use x="266.496094" xlink:href="#DejaVuSans-101"/>
      <use x="328.019531" xlink:href="#DejaVuSans-114"/>
      <use x="369.132812" xlink:href="#DejaVuSans-97"/>
      <use x="430.412109" xlink:href="#DejaVuSans-116"/>
      <use x="469.621094" xlink:href="#DejaVuSans-117"/>
      <use x="533" xlink:href="#DejaVuSans-114"/>
      <use x="571.863281" xlink:href="#DejaVuSans-101"/>
      <use x="633.386719" xlink:href="#DejaVuSans-32"/>
      <use x="665.173828" xlink:href="#DejaVuSans-40"/>
      <use x="704.1875" xlink:href="#DejaVuSans-75"/>
      <use x="769.763672" xlink:href="#DejaVuSans-41"/>
     </g>
    </g>
   </g>
   <g id="line2d_13">
    <path clip-path="url(#p6226501e5a)" d="M 68.546307 318.534545 
L 118.005398 318.467007 
L 118.956534 318.311131 
L 119.669886 317.884098 
L 119.90767 317.548873 
L 120.145455 317.009698 
L 120.502131 315.515273 
L 120.739915 313.646116 
L 121.037145 309.474239 
L 121.364098 300.707159 
L 121.691051 284.937008 
L 122.136896 250.242603 
L 122.850249 195.667486 
L 123.236648 180.06777 
L 123.65277 171.072419 
L 124.068892 166.338475 
L 124.54446 163.472186 
L 124.901136 162.221138 
L 125.376705 161.19964 
L 125.852273 160.57104 
L 126.565625 160.015763 
L 127.516761 159.635365 
L 128.467898 159.426479 
L 131.321307 159.170644 
L 137.028125 159.038964 
L 152.246307 158.958582 
L 220.728125 158.926716 
L 220.728125 158.926716 
" style="fill:none;stroke:#1f77b4;stroke-linecap:square;stroke-width:1.5;"/>
   </g>
   <g id="line2d_14">
    <path clip-path="url(#p6226501e5a)" d="M 68.546307 318.534545 
L 172.576847 318.469402 
L 172.725462 318.199648 
L 172.829492 317.231648 
L 172.926092 313.435523 
L 173.044984 296.826624 
L 173.765767 169.496357 
L 174.062997 155.597522 
L 174.479119 145.945724 
L 175.07358 137.348533 
L 175.786932 130.250757 
L 176.500284 125.197243 
L 177.45142 120.188521 
L 178.402557 116.384271 
L 178.878125 114.804165 
L 179.829261 112.205356 
L 180.780398 110.040476 
L 181.731534 108.205646 
L 182.68267 106.631315 
L 184.584943 104.179144 
L 186.487216 102.22103 
L 188.389489 100.619203 
L 190.291761 99.28319 
L 192.194034 98.151048 
L 194.096307 97.179923 
L 197.900852 95.675723 
L 201.705398 94.47975 
L 205.509943 93.506335 
L 209.314489 92.698858 
L 216.92358 91.437326 
L 220.728125 90.935769 
L 228.337216 90.154452 
L 235.946307 89.530829 
L 251.164489 88.60095 
L 266.38267 87.983063 
L 281.600852 87.514223 
L 312.037216 86.906346 
L 372.909943 86.906346 
L 372.909943 86.906346 
" style="fill:none;stroke:#ff7f0e;stroke-linecap:square;stroke-width:1.5;"/>
   </g>
   <g id="line2d_15">
    <path clip-path="url(#p6226501e5a)" d="M 68.546307 318.534545 
L 174.419673 318.464923 
L 174.538565 318.288978 
L 174.657457 317.583301 
L 174.768919 314.626995 
L 174.88038 303.331219 
L 175.251918 224.874501 
L 175.608594 176.438077 
L 175.905824 160.971019 
L 176.2625 152.144332 
L 176.738068 144.786995 
L 177.45142 137.274287 
L 177.926989 133.557767 
L 178.878125 128.085886 
L 179.829261 124.044663 
L 180.780398 120.921787 
L 181.731534 118.513369 
L 182.68267 116.511285 
L 183.633807 114.81752 
L 185.53608 112.101201 
L 186.487216 110.995642 
L 188.389489 109.222088 
L 190.291761 107.773113 
L 192.194034 106.566133 
L 194.096307 105.545744 
L 197.900852 103.997599 
L 201.705398 102.787025 
L 205.509943 101.814892 
L 209.314489 101.017358 
L 216.92358 99.787265 
L 220.728125 99.303529 
L 228.337216 98.55717 
L 235.946307 97.96596 
L 251.164489 97.091471 
L 266.38267 96.515088 
L 281.600852 96.079147 
L 312.037216 95.514592 
L 372.909943 95.514592 
L 372.909943 95.514592 
" style="fill:none;stroke:#2ca02c;stroke-linecap:square;stroke-width:1.5;"/>
   </g>
   <g id="line2d_16">
    <path clip-path="url(#p6226501e5a)" d="M 68.546307 318.534545 
L 120.858807 318.438807 
L 121.096591 318.146876 
L 121.215483 317.653802 
L 121.364098 315.849926 
L 121.505282 310.13344 
L 121.661328 291.341763 
L 122.523295 157.950662 
L 122.939418 138.156408 
L 123.35554 127.270797 
L 123.831108 119.524811 
L 124.425568 113.408936 
L 125.13892 108.67139 
L 125.614489 106.447153 
L 126.565625 103.407907 
L 127.516761 101.375314 
L 128.467898 99.953302 
L 129.419034 98.969274 
L 130.37017 98.217751 
L 132.272443 97.166491 
L 133.22358 96.792749 
L 135.125852 96.271618 
L 138.930398 95.630149 
L 140.83267 95.429822 
L 144.637216 95.18697 
L 152.246307 94.9698 
L 159.855398 94.870415 
L 190.291761 94.792737 
L 220.728125 94.792737 
L 220.728125 94.792737 
" style="fill:none;stroke:#d62728;stroke-linecap:square;stroke-width:1.5;"/>
   </g>
   <g id="line2d_17">
    <path clip-path="url(#p6226501e5a)" d="M 68.546307 318.534545 
L 121.156037 318.462016 
L 121.274929 318.267525 
L 121.393821 317.444968 
L 121.505282 313.733546 
L 121.616744 299.135316 
L 122.463849 144.949252 
L 122.879972 124.094367 
L 123.474432 107.307515 
L 123.95 98.536226 
L 124.663352 89.181908 
L 125.13892 84.470129 
L 126.090057 77.469093 
L 127.041193 72.277509 
L 127.99233 68.269729 
L 128.467898 66.597042 
L 129.419034 63.851421 
L 130.37017 61.581249 
L 131.321307 59.685348 
L 133.22358 56.889262 
L 135.125852 54.794802 
L 137.028125 53.203761 
L 138.930398 51.983929 
L 140.83267 51.043877 
L 144.637216 49.852889 
L 148.441761 49.097368 
L 152.246307 48.617099 
L 159.855398 48.117209 
L 175.07358 47.85204 
L 220.728125 47.801486 
L 220.728125 47.801486 
" style="fill:none;stroke:#9467bd;stroke-linecap:square;stroke-width:1.5;"/>
   </g>
   <g id="line2d_18">
    <path clip-path="url(#p6226501e5a)" d="M 68.546307 318.534545 
L 174.479119 318.479334 
L 174.598011 318.270744 
L 174.702042 317.267154 
L 174.794926 312.521356 
L 174.917534 288.760864 
L 175.489702 159.820632 
L 175.786932 135.592424 
L 176.143608 119.576861 
L 176.738068 102.804011 
L 177.45142 89.974797 
L 177.926989 83.588706 
L 178.878125 74.092734 
L 179.829261 66.957996 
L 180.780398 61.351012 
L 181.731534 56.960798 
L 182.68267 53.268951 
L 183.633807 50.117095 
L 184.584943 47.393929 
L 186.487216 42.934692 
L 188.389489 39.603614 
L 190.291761 36.908346 
L 192.194034 34.701434 
L 194.096307 32.879989 
L 197.900852 30.271708 
L 201.705398 28.382175 
L 205.509943 27.000604 
L 213.119034 25.386166 
L 220.728125 24.434833 
L 235.946307 23.633109 
L 251.164489 23.293759 
L 281.600852 23.11122 
L 372.909943 23.062112 
L 372.909943 23.062112 
" style="fill:none;stroke:#8c564b;stroke-linecap:square;stroke-width:1.5;"/>
   </g>
   <g id="line2d_19">
    <path clip-path="url(#p6226501e5a)" d="M 68.546307 318.534545 
L 174.538565 318.461695 
L 174.657457 318.110637 
L 174.739196 316.748332 
L 174.824649 310.107884 
L 174.969549 274.926479 
L 175.459979 162.255384 
L 175.786932 135.527446 
L 176.143608 120.558451 
L 176.738068 104.881703 
L 177.45142 92.549492 
L 177.926989 86.372005 
L 178.878125 77.144134 
L 179.829261 70.184244 
L 180.780398 64.698756 
L 181.731534 60.390945 
L 182.68267 56.758964 
L 183.633807 53.649016 
L 184.584943 50.952666 
L 186.487216 46.508696 
L 188.389489 43.144316 
L 190.291761 40.385828 
L 194.096307 36.408317 
L 197.900852 33.447325 
L 201.705398 31.187752 
L 205.509943 29.430949 
L 209.314489 28.045202 
L 213.119034 26.940182 
L 220.728125 25.443126 
L 228.337216 24.410679 
L 235.946307 23.689067 
L 251.164489 22.899524 
L 266.38267 22.46165 
L 281.600852 22.216798 
L 312.037216 22.025455 
L 372.909943 22.025455 
L 372.909943 22.025455 
" style="fill:none;stroke:#e377c2;stroke-linecap:square;stroke-width:1.5;"/>
   </g>
   <g id="line2d_20">
    <path clip-path="url(#p6226501e5a)" d="M 68.546307 318.534545 
L 174.538565 318.474823 
L 174.657457 318.175733 
L 174.754057 316.578216 
L 174.835795 309.806149 
L 175.006703 266.501408 
L 175.459979 164.027125 
L 175.786932 138.103894 
L 176.143608 124.333478 
L 176.738068 109.971531 
L 177.45142 98.634988 
L 177.926989 92.956188 
L 178.878125 84.491001 
L 179.829261 78.129249 
L 180.780398 73.133527 
L 181.731534 69.224948 
L 182.68267 65.938271 
L 183.633807 63.12991 
L 185.53608 58.571437 
L 186.487216 56.696096 
L 188.389489 53.663548 
L 190.291761 51.168621 
L 192.194034 49.08102 
L 194.096307 47.311632 
L 197.900852 44.629303 
L 201.705398 42.542007 
L 205.509943 40.881534 
L 209.314489 39.537412 
L 213.119034 38.434041 
L 216.92358 37.51791 
L 220.728125 36.750451 
L 228.337216 35.621936 
L 235.946307 34.777663 
L 243.555398 34.137114 
L 251.164489 33.646033 
L 266.38267 33.024754 
L 281.600852 32.626042 
L 312.037216 32.242704 
L 372.909943 32.242704 
L 372.909943 32.242704 
" style="fill:none;stroke:#7f7f7f;stroke-linecap:square;stroke-width:1.5;"/>
   </g>
   <g id="line2d_21">
    <path clip-path="url(#p6226501e5a)" d="M 68.546307 318.534545 
L 174.538565 318.476935 
L 174.657457 318.196131 
L 174.754057 316.731824 
L 174.835795 310.580792 
L 174.984411 275.442714 
L 175.459979 167.426164 
L 175.727486 145.078386 
L 176.143608 129.293074 
L 176.738068 116.265865 
L 177.45142 105.816263 
L 177.926989 100.588219 
L 178.878125 92.81154 
L 179.829261 86.984336 
L 180.780398 82.420136 
L 181.731534 78.857305 
L 182.68267 75.86595 
L 183.633807 73.312999 
L 184.584943 71.108418 
L 186.487216 67.645546 
L 188.389489 64.858537 
L 190.291761 62.564528 
L 192.194034 60.642126 
L 194.096307 59.008826 
L 197.900852 56.5179 
L 201.705398 54.564026 
L 205.509943 52.994425 
L 209.314489 51.709384 
L 213.119034 50.641004 
L 216.92358 49.741421 
L 220.728125 48.976284 
L 228.337216 47.817832 
L 235.946307 46.922117 
L 243.555398 46.217406 
L 251.164489 45.655465 
L 266.38267 44.8919 
L 281.600852 44.361457 
L 312.037216 43.779247 
L 372.909943 43.779247 
L 372.909943 43.779247 
" style="fill:none;stroke:#bcbd22;stroke-linecap:square;stroke-width:1.5;"/>
   </g>
   <g id="line2d_22">
    <path clip-path="url(#p6226501e5a)" d="M 68.546307 318.534545 
L 174.538565 318.46757 
L 174.657457 318.164093 
L 174.754057 316.688006 
L 174.843226 309.861927 
L 175.014134 269.162841 
L 175.459979 171.79063 
L 175.757209 148.105571 
L 176.143608 134.758638 
L 176.738068 122.700801 
L 177.45142 113.159081 
L 177.926989 108.380254 
L 178.878125 101.270901 
L 179.829261 95.948801 
L 180.780398 91.785003 
L 181.731534 88.538196 
L 182.68267 85.814679 
L 183.633807 83.49202 
L 184.584943 81.487511 
L 186.487216 78.34053 
L 188.389489 75.808395 
L 190.291761 73.723717 
L 192.194034 71.975636 
L 194.096307 70.488993 
L 197.900852 68.215957 
L 201.705398 66.426939 
L 205.509943 64.983621 
L 209.314489 63.79596 
L 213.119034 62.803244 
L 220.728125 61.33057 
L 228.337216 60.203458 
L 235.946307 59.31878 
L 243.555398 58.610461 
L 251.164489 58.034358 
L 266.38267 57.220809 
L 281.600852 56.629609 
L 312.037216 55.92472 
L 372.909943 55.92472 
L 372.909943 55.92472 
" style="fill:none;stroke:#17becf;stroke-linecap:square;stroke-width:1.5;"/>
   </g>
   <g id="line2d_23">
    <path clip-path="url(#p6226501e5a)" d="M 68.546307 318.534545 
L 174.538565 318.446923 
L 174.657457 318.087074 
L 174.754057 316.492877 
L 174.843226 309.800516 
L 175.014134 271.171566 
L 175.489702 173.009733 
L 175.786932 151.576891 
L 176.143608 140.105449 
L 176.738068 128.861825 
L 177.45142 119.980595 
L 177.926989 115.538263 
L 178.878125 108.938554 
L 179.829261 104.008759 
L 180.780398 100.159955 
L 181.731534 97.164437 
L 182.68267 94.655645 
L 183.633807 92.519078 
L 184.584943 90.677557 
L 186.487216 87.791307 
L 188.389489 85.472632 
L 190.291761 83.566025 
L 192.194034 81.968713 
L 194.096307 80.609875 
L 195.99858 79.439061 
L 197.900852 78.420303 
L 201.705398 76.809694 
L 205.509943 75.507748 
L 209.314489 74.434028 
L 213.119034 73.533876 
L 220.728125 72.111418 
L 228.337216 71.095308 
L 235.946307 70.290574 
L 243.555398 69.639929 
L 251.164489 69.105072 
L 266.38267 68.334104 
L 281.600852 67.760344 
L 312.037216 67.044412 
L 372.909943 67.044412 
L 372.909943 67.044412 
" style="fill:none;stroke:#1f77b4;stroke-linecap:square;stroke-width:1.5;"/>
   </g>
   <g id="line2d_24">
    <path clip-path="url(#p6226501e5a)" d="M 68.546307 318.534545 
L 174.479119 318.475649 
L 174.627734 318.157112 
L 174.731765 316.864244 
L 174.828365 311.239904 
L 174.969549 284.177396 
L 175.519425 174.756289 
L 175.816655 155.145823 
L 176.143608 145.271304 
L 176.738068 134.651628 
L 177.45142 126.312176 
L 177.926989 122.152121 
L 178.878125 115.986438 
L 179.829261 111.395408 
L 180.780398 107.821522 
L 181.731534 105.047272 
L 182.68267 102.728835 
L 183.633807 100.758028 
L 185.53608 97.577653 
L 186.487216 96.27534 
L 188.389489 94.174814 
L 190.291761 92.44929 
L 192.194034 91.004974 
L 194.096307 89.777261 
L 195.99858 88.720153 
L 197.900852 87.800916 
L 201.705398 86.348626 
L 205.509943 85.175285 
L 209.314489 84.207839 
L 213.119034 83.396721 
L 220.728125 82.114156 
L 228.337216 81.196067 
L 235.946307 80.467149 
L 251.164489 79.387864 
L 266.38267 78.678293 
L 281.600852 78.144396 
L 312.037216 77.462754 
L 372.909943 77.462754 
L 372.909943 77.462754 
" style="fill:none;stroke:#ff7f0e;stroke-linecap:square;stroke-width:1.5;"/>
   </g>
   <g id="line2d_25">
    <path clip-path="url(#p6226501e5a)" d="M 68.546307 318.534545 
L 118.005398 318.495668 
L 119.432102 318.245883 
L 119.90767 317.843907 
L 120.145455 317.422294 
L 120.502131 316.186162 
L 120.739915 314.543087 
L 121.037145 310.645895 
L 121.334375 302.95806 
L 121.661328 287.225431 
L 122.07745 254.008535 
L 122.820526 195.062589 
L 123.236648 178.562122 
L 123.65277 170.051827 
L 124.068892 165.575764 
L 124.54446 162.852704 
L 124.901136 161.656671 
L 125.376705 160.673644 
L 126.090057 159.846212 
L 126.565625 159.52199 
L 127.516761 159.146642 
L 128.467898 158.938683 
L 131.321307 158.680874 
L 137.028125 158.545929 
L 152.246307 158.462369 
L 220.728125 158.428621 
L 220.728125 158.428621 
" style="fill:none;stroke:#1f77b4;stroke-dasharray:1.5,2.475;stroke-dashoffset:0;stroke-width:1.5;"/>
   </g>
   <g id="line2d_26">
    <path clip-path="url(#p6226501e5a)" d="M 68.546307 318.534545 
L 172.576847 318.450966 
L 172.725462 318.124352 
L 172.829492 317.011499 
L 172.933523 312.317833 
L 173.059846 293.121521 
L 173.736044 172.126292 
L 174.033274 156.810186 
L 174.360227 148.359874 
L 174.835795 140.411866 
L 175.549148 132.307954 
L 176.024716 128.306272 
L 176.975852 122.4195 
L 177.926989 118.070692 
L 178.878125 114.706997 
L 179.829261 112.108982 
L 180.780398 109.946495 
L 181.731534 108.114939 
L 182.68267 106.5445 
L 184.584943 104.099364 
L 186.487216 102.148248 
L 188.389489 100.553067 
L 190.291761 99.223244 
L 192.194034 98.096827 
L 194.096307 97.131071 
L 197.900852 95.635634 
L 201.705398 94.447218 
L 205.509943 93.480364 
L 209.314489 92.678624 
L 216.92358 91.426631 
L 220.728125 90.929114 
L 228.337216 90.154304 
L 235.946307 89.536114 
L 251.164489 88.614807 
L 266.38267 88.002992 
L 281.600852 87.538991 
L 312.037216 86.93792 
L 372.909943 86.93792 
L 372.909943 86.93792 
" style="fill:none;stroke:#ff7f0e;stroke-dasharray:1.5,2.475;stroke-dashoffset:0;stroke-width:1.5;"/>
   </g>
   <g id="line2d_27">
    <path clip-path="url(#p6226501e5a)" d="M 68.546307 318.534545 
L 174.419673 318.442948 
L 174.538565 318.224649 
L 174.657457 317.390272 
L 174.776349 313.691743 
L 174.902672 298.809445 
L 175.727486 169.002961 
L 176.024716 157.713069 
L 176.500284 148.215532 
L 177.213636 139.503169 
L 177.926989 133.546191 
L 178.878125 128.046707 
L 179.829261 123.993643 
L 180.780398 120.866565 
L 181.731534 118.456652 
L 182.68267 116.45493 
L 183.633807 114.762573 
L 185.53608 112.050619 
L 186.487216 110.947747 
L 188.389489 109.178819 
L 190.291761 107.734408 
L 192.194034 106.531787 
L 194.096307 105.515589 
L 197.900852 103.974217 
L 201.705398 102.769535 
L 205.509943 101.802528 
L 209.314489 101.009475 
L 216.92358 99.786811 
L 220.728125 99.306215 
L 228.337216 98.564852 
L 235.946307 97.977791 
L 251.164489 97.109804 
L 266.38267 96.537964 
L 281.600852 96.105618 
L 312.037216 95.546089 
L 372.909943 95.546089 
L 372.909943 95.546089 
" style="fill:none;stroke:#2ca02c;stroke-dasharray:1.5,2.475;stroke-dashoffset:0;stroke-width:1.5;"/>
   </g>
   <g id="line2d_28">
    <path clip-path="url(#p6226501e5a)" d="M 68.546307 318.534545 
L 120.858807 318.462321 
L 121.096591 318.225737 
L 121.215483 317.806802 
L 121.364098 316.196837 
L 121.505282 310.769846 
L 121.653897 293.193257 
L 122.523295 157.469737 
L 122.939418 137.872661 
L 123.35554 127.069047 
L 123.831108 119.363115 
L 124.425568 113.263781 
L 125.13892 108.529736 
L 125.614489 106.303814 
L 126.565625 103.254961 
L 127.516761 101.212493 
L 128.467898 99.781633 
L 129.419034 98.789325 
L 130.37017 98.030735 
L 132.272443 96.968316 
L 133.22358 96.590229 
L 135.125852 96.062119 
L 138.930398 95.411114 
L 140.83267 95.207505 
L 144.637216 94.960132 
L 152.246307 94.738255 
L 159.855398 94.636406 
L 190.291761 94.556388 
L 220.728125 94.556388 
L 220.728125 94.556388 
" style="fill:none;stroke:#d62728;stroke-dasharray:1.5,2.475;stroke-dashoffset:0;stroke-width:1.5;"/>
   </g>
   <g id="line2d_29">
    <path clip-path="url(#p6226501e5a)" d="M 68.546307 318.534545 
L 121.156037 318.473929 
L 121.274929 318.3044 
L 121.393821 317.562296 
L 121.497852 314.50829 
L 121.609313 301.093443 
L 122.523295 140.657894 
L 122.879972 123.767364 
L 123.474432 107.022174 
L 123.95 98.27129 
L 124.663352 88.936769 
L 125.13892 84.235986 
L 126.090057 77.247967 
L 127.041193 72.067198 
L 127.99233 68.068821 
L 128.467898 66.400721 
L 129.419034 63.661705 
L 130.37017 61.397834 
L 131.321307 59.508213 
L 133.22358 56.72198 
L 135.125852 54.636812 
L 137.028125 53.054438 
L 138.930398 51.842605 
L 140.83267 50.909917 
L 144.637216 49.730244 
L 148.441761 48.983616 
L 152.246307 48.510117 
L 159.855398 48.018895 
L 175.07358 47.759846 
L 220.728125 47.710808 
L 220.728125 47.710808 
" style="fill:none;stroke:#9467bd;stroke-dasharray:1.5,2.475;stroke-dashoffset:0;stroke-width:1.5;"/>
   </g>
   <g id="line2d_30">
    <path clip-path="url(#p6226501e5a)" d="M 68.546307 318.534545 
L 174.538565 318.425995 
L 174.657457 317.956254 
L 174.746626 316.000077 
L 174.835795 307.382544 
L 175.043857 252.959466 
L 175.459979 163.050106 
L 175.786932 135.216553 
L 176.143608 119.201189 
L 176.738068 102.429725 
L 177.45142 89.608442 
L 177.926989 83.230715 
L 178.878125 73.747491 
L 179.829261 66.626254 
L 180.780398 61.033184 
L 181.731534 56.654485 
L 182.68267 52.974045 
L 183.633807 49.83339 
L 184.584943 47.12119 
L 186.487216 42.683554 
L 188.389489 39.371701 
L 190.291761 36.694803 
L 192.194034 34.505344 
L 194.096307 32.700532 
L 197.900852 30.120507 
L 201.705398 28.255421 
L 205.509943 26.894719 
L 213.119034 25.309922 
L 220.728125 24.37942 
L 235.946307 23.599299 
L 251.164489 23.27087 
L 281.600852 23.095431 
L 372.909943 23.048567 
L 372.909943 23.048567 
" style="fill:none;stroke:#8c564b;stroke-dasharray:1.5,2.475;stroke-dashoffset:0;stroke-width:1.5;"/>
   </g>
   <g id="line2d_31">
    <path clip-path="url(#p6226501e5a)" d="M 68.546307 318.534545 
L 174.538565 318.464554 
L 174.657457 318.122788 
L 174.739196 316.781288 
L 174.824649 310.173911 
L 174.969549 274.974726 
L 175.459979 161.932868 
L 175.786932 135.21301 
L 176.143608 120.212509 
L 176.738068 104.506197 
L 177.45142 92.169336 
L 177.926989 85.996571 
L 178.878125 76.780377 
L 179.829261 69.835413 
L 180.780398 64.366171 
L 181.731534 60.072869 
L 182.68267 56.455225 
L 183.633807 53.359239 
L 184.584943 50.676393 
L 186.487216 46.258275 
L 188.389489 42.916442 
L 190.291761 40.179078 
L 194.096307 36.236942 
L 197.900852 33.306683 
L 201.705398 31.073854 
L 205.509943 29.34038 
L 209.314489 27.97504 
L 213.119034 26.887957 
L 220.728125 25.41872 
L 228.337216 24.408193 
L 235.946307 23.703893 
L 251.164489 22.936748 
L 266.38267 22.513378 
L 281.600852 22.277835 
L 312.037216 22.095103 
L 372.909943 22.095103 
L 372.909943 22.095103 
" style="fill:none;stroke:#e377c2;stroke-dasharray:1.5,2.475;stroke-dashoffset:0;stroke-width:1.5;"/>
   </g>
   <g id="line2d_32">
    <path clip-path="url(#p6226501e5a)" d="M 68.546307 318.534545 
L 174.538565 318.473436 
L 174.657457 318.168056 
L 174.754057 316.542802 
L 174.835795 309.70829 
L 175.006703 266.463285 
L 175.459979 163.830292 
L 175.786932 137.894206 
L 176.143608 124.070636 
L 176.738068 109.655433 
L 177.45142 98.302442 
L 177.926989 92.624548 
L 178.878125 84.168529 
L 179.829261 77.821184 
L 180.780398 72.841749 
L 181.731534 68.948114 
L 182.68267 65.676097 
L 183.633807 62.881852 
L 185.53608 58.349682 
L 186.487216 56.486699 
L 188.389489 53.475528 
L 190.291761 50.999978 
L 192.194034 48.929982 
L 194.096307 47.176754 
L 197.900852 44.521131 
L 201.705398 42.456711 
L 205.509943 40.816035 
L 209.314489 39.489207 
L 213.119034 38.40107 
L 216.92358 37.498455 
L 220.728125 36.743094 
L 228.337216 35.634162 
L 235.946307 34.806081 
L 243.555398 34.179042 
L 251.164489 33.699309 
L 266.38267 33.094477 
L 281.600852 32.70779 
L 312.037216 32.338231 
L 372.909943 32.338231 
L 372.909943 32.338231 
" style="fill:none;stroke:#7f7f7f;stroke-dasharray:1.5,2.475;stroke-dashoffset:0;stroke-width:1.5;"/>
   </g>
   <g id="line2d_33">
    <path clip-path="url(#p6226501e5a)" d="M 68.546307 318.534545 
L 174.538565 318.47207 
L 174.657457 318.172498 
L 174.754057 316.638017 
L 174.843226 309.281954 
L 175.021564 264.671557 
L 175.459979 167.38092 
L 175.727486 144.99377 
L 176.143608 129.124049 
L 176.738068 116.022365 
L 177.45142 105.54348 
L 177.926989 100.311294 
L 178.878125 92.538101 
L 179.829261 86.721712 
L 180.780398 82.171091 
L 181.731534 78.621146 
L 182.68267 75.642596 
L 183.633807 73.102066 
L 184.584943 70.909559 
L 186.487216 67.467383 
L 188.389489 64.699066 
L 190.291761 62.421903 
L 192.194034 60.514718 
L 194.096307 58.895319 
L 197.900852 56.427177 
L 201.705398 54.492712 
L 205.509943 52.939848 
L 209.314489 51.669397 
L 213.119034 50.613861 
L 216.92358 49.725683 
L 220.728125 48.970784 
L 228.337216 47.829031 
L 235.946307 46.947307 
L 243.555398 46.25448 
L 251.164489 45.702756 
L 266.38267 44.954769 
L 281.600852 44.436471 
L 312.037216 43.870045 
L 372.909943 43.870045 
L 372.909943 43.870045 
" style="fill:none;stroke:#bcbd22;stroke-dasharray:1.5,2.475;stroke-dashoffset:0;stroke-width:1.5;"/>
   </g>
   <g id="line2d_34">
    <path clip-path="url(#p6226501e5a)" d="M 68.546307 318.534545 
L 174.538565 318.458238 
L 174.657457 318.1224 
L 174.754057 316.53748 
L 174.843226 309.49605 
L 175.021564 266.994551 
L 175.489702 168.337416 
L 175.786932 146.717268 
L 176.143608 134.675636 
L 176.738068 122.519531 
L 177.45142 112.932962 
L 177.926989 108.143014 
L 178.878125 101.027779 
L 179.829261 95.709892 
L 180.780398 91.554608 
L 181.731534 88.31676 
L 182.68267 85.602687 
L 183.633807 83.289507 
L 184.584943 81.294441 
L 186.487216 78.163833 
L 188.389489 75.646694 
L 190.291761 73.575642 
L 192.194034 71.839932 
L 194.096307 70.364643 
L 197.900852 68.110219 
L 201.705398 66.337092 
L 205.509943 64.907493 
L 209.314489 63.731802 
L 213.119034 62.749673 
L 220.728125 61.293829 
L 228.337216 60.180585 
L 235.946307 59.307557 
L 243.555398 58.609176 
L 251.164489 58.041678 
L 266.38267 57.241483 
L 281.600852 56.66098 
L 312.037216 55.970934 
L 372.909943 55.970934 
L 372.909943 55.970934 
" style="fill:none;stroke:#17becf;stroke-dasharray:1.5,2.475;stroke-dashoffset:0;stroke-width:1.5;"/>
   </g>
   <g id="line2d_35">
    <path clip-path="url(#p6226501e5a)" d="M 68.546307 318.534545 
L 174.538565 318.430687 
L 174.657457 318.020934 
L 174.761488 315.990084 
L 174.858088 307.156186 
L 175.08101 253.556223 
L 175.489702 173.247059 
L 175.786932 151.693101 
L 176.143608 140.105118 
L 176.738068 128.748587 
L 177.45142 119.812167 
L 177.926989 115.353932 
L 178.878125 108.741559 
L 179.829261 103.811059 
L 180.780398 99.966933 
L 181.731534 96.977305 
L 182.68267 94.475312 
L 183.633807 92.3459 
L 184.584943 90.511746 
L 186.487216 87.638408 
L 188.389489 85.331767 
L 190.291761 83.436204 
L 192.194034 81.848969 
L 194.096307 80.499323 
L 195.99858 79.336915 
L 197.900852 78.325939 
L 201.705398 76.728261 
L 205.509943 75.437481 
L 209.314489 74.373494 
L 213.119034 73.481904 
L 220.728125 72.073863 
L 228.337216 71.068832 
L 235.946307 70.273381 
L 243.555398 69.630638 
L 251.164489 69.102613 
L 266.38267 68.342229 
L 281.600852 67.776969 
L 312.037216 67.073034 
L 372.909943 67.073034 
L 372.909943 67.073034 
" style="fill:none;stroke:#1f77b4;stroke-dasharray:1.5,2.475;stroke-dashoffset:0;stroke-width:1.5;"/>
   </g>
   <g id="line2d_36">
    <path clip-path="url(#p6226501e5a)" d="M 68.546307 318.534545 
L 174.479119 318.461426 
L 174.598011 318.22872 
L 174.702042 317.299857 
L 174.802357 313.14294 
L 174.924964 294.231594 
L 175.593732 168.258286 
L 175.905824 152.016283 
L 176.2625 142.737398 
L 176.738068 134.613657 
L 177.45142 126.211161 
L 177.926989 122.031505 
L 178.878125 115.847707 
L 179.829261 111.251939 
L 180.780398 107.679539 
L 181.731534 104.90856 
L 182.68267 102.594648 
L 183.633807 100.628945 
L 185.53608 97.459269 
L 186.487216 96.162396 
L 188.389489 94.071269 
L 190.291761 92.35447 
L 192.194034 90.918174 
L 194.096307 89.697807 
L 195.99858 88.647437 
L 197.900852 87.734465 
L 201.705398 86.292535 
L 205.509943 85.128141 
L 209.314489 84.168488 
L 213.119034 83.364216 
L 220.728125 82.093154 
L 228.337216 81.183842 
L 235.946307 80.462246 
L 251.164489 79.39451 
L 266.38267 78.693149 
L 281.600852 78.165806 
L 312.037216 77.493388 
L 372.909943 77.493388 
L 372.909943 77.493388 
" style="fill:none;stroke:#ff7f0e;stroke-dasharray:1.5,2.475;stroke-dashoffset:0;stroke-width:1.5;"/>
   </g>
   <g id="patch_3">
    <path d="M 53.328125 333.36 
L 53.328125 7.2 
" style="fill:none;stroke:#000000;stroke-linecap:square;stroke-linejoin:miter;stroke-width:0.8;"/>
   </g>
   <g id="patch_4">
    <path d="M 388.128125 333.36 
L 388.128125 7.2 
" style="fill:none;stroke:#000000;stroke-linecap:square;stroke-linejoin:miter;stroke-width:0.8;"/>
   </g>
   <g id="patch_5">
    <path d="M 53.328125 333.36 
L 388.128125 333.36 
" style="fill:none;stroke:#000000;stroke-linecap:square;stroke-linejoin:miter;stroke-width:0.8;"/>
   </g>
   <g id="patch_6">
    <path d="M 53.328125 7.2 
L 388.128125 7.2 
" style="fill:none;stroke:#000000;stroke-linecap:square;stroke-linejoin:miter;stroke-width:0.8;"/>
   </g>
   <g id="legend_1">
    <g id="text_15">
     <!-- Equivalence ratio -->
     <g transform="translate(288.092188 146.142813)scale(0.1 -0.1)">
      <defs>
       <path d="M 9.8125 72.90625 
L 55.90625 72.90625 
L 55.90625 64.59375 
L 19.671875 64.59375 
L 19.671875 43.015625 
L 54.390625 43.015625 
L 54.390625 34.71875 
L 19.671875 34.71875 
L 19.671875 8.296875 
L 56.78125 8.296875 
L 56.78125 0 
L 9.8125 0 
z
" id="DejaVuSans-69"/>
       <path d="M 14.796875 27.296875 
Q 14.796875 17.390625 18.875 11.75 
Q 22.953125 6.109375 30.078125 6.109375 
Q 37.203125 6.109375 41.296875 11.75 
Q 45.40625 17.390625 45.40625 27.296875 
Q 45.40625 37.203125 41.296875 42.84375 
Q 37.203125 48.484375 30.078125 48.484375 
Q 22.953125 48.484375 18.875 42.84375 
Q 14.796875 37.203125 14.796875 27.296875 
z
M 45.40625 8.203125 
Q 42.578125 3.328125 38.25 0.953125 
Q 33.9375 -1.421875 27.875 -1.421875 
Q 17.96875 -1.421875 11.734375 6.484375 
Q 5.515625 14.40625 5.515625 27.296875 
Q 5.515625 40.1875 11.734375 48.09375 
Q 17.96875 56 27.875 56 
Q 33.9375 56 38.25 53.625 
Q 42.578125 51.265625 45.40625 46.390625 
L 45.40625 54.6875 
L 54.390625 54.6875 
L 54.390625 -20.796875 
L 45.40625 -20.796875 
z
" id="DejaVuSans-113"/>
       <path d="M 2.984375 54.6875 
L 12.5 54.6875 
L 29.59375 8.796875 
L 46.6875 54.6875 
L 56.203125 54.6875 
L 35.6875 0 
L 23.484375 0 
z
" id="DejaVuSans-118"/>
       <path d="M 9.421875 75.984375 
L 18.40625 75.984375 
L 18.40625 0 
L 9.421875 0 
z
" id="DejaVuSans-108"/>
       <path d="M 48.78125 52.59375 
L 48.78125 44.1875 
Q 44.96875 46.296875 41.140625 47.34375 
Q 37.3125 48.390625 33.40625 48.390625 
Q 24.65625 48.390625 19.8125 42.84375 
Q 14.984375 37.3125 14.984375 27.296875 
Q 14.984375 17.28125 19.8125 11.734375 
Q 24.65625 6.203125 33.40625 6.203125 
Q 37.3125 6.203125 41.140625 7.25 
Q 44.96875 8.296875 48.78125 10.40625 
L 48.78125 2.09375 
Q 45.015625 0.34375 40.984375 -0.53125 
Q 36.96875 -1.421875 32.421875 -1.421875 
Q 20.0625 -1.421875 12.78125 6.34375 
Q 5.515625 14.109375 5.515625 27.296875 
Q 5.515625 40.671875 12.859375 48.328125 
Q 20.21875 56 33.015625 56 
Q 37.15625 56 41.109375 55.140625 
Q 45.0625 54.296875 48.78125 52.59375 
z
" id="DejaVuSans-99"/>
      </defs>
      <use xlink:href="#DejaVuSans-69"/>
      <use x="63.183594" xlink:href="#DejaVuSans-113"/>
      <use x="126.660156" xlink:href="#DejaVuSans-117"/>
      <use x="190.039062" xlink:href="#DejaVuSans-105"/>
      <use x="217.822266" xlink:href="#DejaVuSans-118"/>
      <use x="277.001953" xlink:href="#DejaVuSans-97"/>
      <use x="338.28125" xlink:href="#DejaVuSans-108"/>
      <use x="366.064453" xlink:href="#DejaVuSans-101"/>
      <use x="427.587891" xlink:href="#DejaVuSans-110"/>
      <use x="490.966797" xlink:href="#DejaVuSans-99"/>
      <use x="545.947266" xlink:href="#DejaVuSans-101"/>
      <use x="607.470703" xlink:href="#DejaVuSans-32"/>
      <use x="639.257812" xlink:href="#DejaVuSans-114"/>
      <use x="680.371094" xlink:href="#DejaVuSans-97"/>
      <use x="741.650391" xlink:href="#DejaVuSans-116"/>
      <use x="780.859375" xlink:href="#DejaVuSans-105"/>
      <use x="808.642578" xlink:href="#DejaVuSans-111"/>
     </g>
    </g>
    <g id="line2d_37">
     <path d="M 284.040625 157.320938 
L 304.040625 157.320938 
" style="fill:none;stroke:#1f77b4;stroke-linecap:square;stroke-width:1.5;"/>
    </g>
    <g id="line2d_38"/>
    <g id="text_16">
     <!-- 0 -->
     <g transform="translate(312.040625 160.820938)scale(0.1 -0.1)">
      <use xlink:href="#DejaVuSans-48"/>
     </g>
    </g>
    <g id="line2d_39">
     <path d="M 284.040625 171.999063 
L 304.040625 171.999063 
" style="fill:none;stroke:#ff7f0e;stroke-linecap:square;stroke-width:1.5;"/>
    </g>
    <g id="line2d_40"/>
    <g id="text_17">
     <!-- 10 -->
     <g transform="translate(312.040625 175.499063)scale(0.1 -0.1)">
      <use xlink:href="#DejaVuSans-49"/>
      <use x="63.623047" xlink:href="#DejaVuSans-48"/>
     </g>
    </g>
    <g id="line2d_41">
     <path d="M 284.040625 186.677188 
L 304.040625 186.677188 
" style="fill:none;stroke:#2ca02c;stroke-linecap:square;stroke-width:1.5;"/>
    </g>
    <g id="line2d_42"/>
    <g id="text_18">
     <!-- 11 -->
     <g transform="translate(312.040625 190.177188)scale(0.1 -0.1)">
      <use xlink:href="#DejaVuSans-49"/>
      <use x="63.623047" xlink:href="#DejaVuSans-49"/>
     </g>
    </g>
    <g id="line2d_43">
     <path d="M 284.040625 201.355313 
L 304.040625 201.355313 
" style="fill:none;stroke:#d62728;stroke-linecap:square;stroke-width:1.5;"/>
    </g>
    <g id="line2d_44"/>
    <g id="text_19">
     <!-- 1 -->
     <g transform="translate(312.040625 204.855313)scale(0.1 -0.1)">
      <use xlink:href="#DejaVuSans-49"/>
     </g>
    </g>
    <g id="line2d_45">
     <path d="M 284.040625 216.033438 
L 304.040625 216.033438 
" style="fill:none;stroke:#9467bd;stroke-linecap:square;stroke-width:1.5;"/>
    </g>
    <g id="line2d_46"/>
    <g id="text_20">
     <!-- 2 -->
     <g transform="translate(312.040625 219.533438)scale(0.1 -0.1)">
      <use xlink:href="#DejaVuSans-50"/>
     </g>
    </g>
    <g id="line2d_47">
     <path d="M 284.040625 230.711563 
L 304.040625 230.711563 
" style="fill:none;stroke:#8c564b;stroke-linecap:square;stroke-width:1.5;"/>
    </g>
    <g id="line2d_48"/>
    <g id="text_21">
     <!-- 3 -->
     <g transform="translate(312.040625 234.211563)scale(0.1 -0.1)">
      <defs>
       <path d="M 40.578125 39.3125 
Q 47.65625 37.796875 51.625 33 
Q 55.609375 28.21875 55.609375 21.1875 
Q 55.609375 10.40625 48.1875 4.484375 
Q 40.765625 -1.421875 27.09375 -1.421875 
Q 22.515625 -1.421875 17.65625 -0.515625 
Q 12.796875 0.390625 7.625 2.203125 
L 7.625 11.71875 
Q 11.71875 9.328125 16.59375 8.109375 
Q 21.484375 6.890625 26.8125 6.890625 
Q 36.078125 6.890625 40.9375 10.546875 
Q 45.796875 14.203125 45.796875 21.1875 
Q 45.796875 27.640625 41.28125 31.265625 
Q 36.765625 34.90625 28.71875 34.90625 
L 20.21875 34.90625 
L 20.21875 43.015625 
L 29.109375 43.015625 
Q 36.375 43.015625 40.234375 45.921875 
Q 44.09375 48.828125 44.09375 54.296875 
Q 44.09375 59.90625 40.109375 62.90625 
Q 36.140625 65.921875 28.71875 65.921875 
Q 24.65625 65.921875 20.015625 65.03125 
Q 15.375 64.15625 9.8125 62.3125 
L 9.8125 71.09375 
Q 15.4375 72.65625 20.34375 73.4375 
Q 25.25 74.21875 29.59375 74.21875 
Q 40.828125 74.21875 47.359375 69.109375 
Q 53.90625 64.015625 53.90625 55.328125 
Q 53.90625 49.265625 50.4375 45.09375 
Q 46.96875 40.921875 40.578125 39.3125 
z
" id="DejaVuSans-51"/>
      </defs>
      <use xlink:href="#DejaVuSans-51"/>
     </g>
    </g>
    <g id="line2d_49">
     <path d="M 284.040625 245.389688 
L 304.040625 245.389688 
" style="fill:none;stroke:#e377c2;stroke-linecap:square;stroke-width:1.5;"/>
    </g>
    <g id="line2d_50"/>
    <g id="text_22">
     <!-- 4 -->
     <g transform="translate(312.040625 248.889688)scale(0.1 -0.1)">
      <use xlink:href="#DejaVuSans-52"/>
     </g>
    </g>
    <g id="line2d_51">
     <path d="M 284.040625 260.067813 
L 304.040625 260.067813 
" style="fill:none;stroke:#7f7f7f;stroke-linecap:square;stroke-width:1.5;"/>
    </g>
    <g id="line2d_52"/>
    <g id="text_23">
     <!-- 5 -->
     <g transform="translate(312.040625 263.567813)scale(0.1 -0.1)">
      <use xlink:href="#DejaVuSans-53"/>
     </g>
    </g>
    <g id="line2d_53">
     <path d="M 284.040625 274.745938 
L 304.040625 274.745938 
" style="fill:none;stroke:#bcbd22;stroke-linecap:square;stroke-width:1.5;"/>
    </g>
    <g id="line2d_54"/>
    <g id="text_24">
     <!-- 6 -->
     <g transform="translate(312.040625 278.245938)scale(0.1 -0.1)">
      <use xlink:href="#DejaVuSans-54"/>
     </g>
    </g>
    <g id="line2d_55">
     <path d="M 284.040625 289.424062 
L 304.040625 289.424062 
" style="fill:none;stroke:#17becf;stroke-linecap:square;stroke-width:1.5;"/>
    </g>
    <g id="line2d_56"/>
    <g id="text_25">
     <!-- 7 -->
     <g transform="translate(312.040625 292.924062)scale(0.1 -0.1)">
      <defs>
       <path d="M 8.203125 72.90625 
L 55.078125 72.90625 
L 55.078125 68.703125 
L 28.609375 0 
L 18.3125 0 
L 43.21875 64.59375 
L 8.203125 64.59375 
z
" id="DejaVuSans-55"/>
      </defs>
      <use xlink:href="#DejaVuSans-55"/>
     </g>
    </g>
    <g id="line2d_57">
     <path d="M 284.040625 304.102188 
L 304.040625 304.102188 
" style="fill:none;stroke:#1f77b4;stroke-linecap:square;stroke-width:1.5;"/>
    </g>
    <g id="line2d_58"/>
    <g id="text_26">
     <!-- 8 -->
     <g transform="translate(312.040625 307.602188)scale(0.1 -0.1)">
      <use xlink:href="#DejaVuSans-56"/>
     </g>
    </g>
    <g id="line2d_59">
     <path d="M 284.040625 318.780312 
L 304.040625 318.780312 
" style="fill:none;stroke:#ff7f0e;stroke-linecap:square;stroke-width:1.5;"/>
    </g>
    <g id="line2d_60"/>
    <g id="text_27">
     <!-- 9 -->
     <g transform="translate(312.040625 322.280312)scale(0.1 -0.1)">
      <defs>
       <path d="M 10.984375 1.515625 
L 10.984375 10.5 
Q 14.703125 8.734375 18.5 7.8125 
Q 22.3125 6.890625 25.984375 6.890625 
Q 35.75 6.890625 40.890625 13.453125 
Q 46.046875 20.015625 46.78125 33.40625 
Q 43.953125 29.203125 39.59375 26.953125 
Q 35.25 24.703125 29.984375 24.703125 
Q 19.046875 24.703125 12.671875 31.3125 
Q 6.296875 37.9375 6.296875 49.421875 
Q 6.296875 60.640625 12.9375 67.421875 
Q 19.578125 74.21875 30.609375 74.21875 
Q 43.265625 74.21875 49.921875 64.515625 
Q 56.59375 54.828125 56.59375 36.375 
Q 56.59375 19.140625 48.40625 8.859375 
Q 40.234375 -1.421875 26.421875 -1.421875 
Q 22.703125 -1.421875 18.890625 -0.6875 
Q 15.09375 0.046875 10.984375 1.515625 
z
M 30.609375 32.421875 
Q 37.25 32.421875 41.125 36.953125 
Q 45.015625 41.5 45.015625 49.421875 
Q 45.015625 57.28125 41.125 61.84375 
Q 37.25 66.40625 30.609375 66.40625 
Q 23.96875 66.40625 20.09375 61.84375 
Q 16.21875 57.28125 16.21875 49.421875 
Q 16.21875 41.5 20.09375 36.953125 
Q 23.96875 32.421875 30.609375 32.421875 
z
" id="DejaVuSans-57"/>
      </defs>
      <use xlink:href="#DejaVuSans-57"/>
     </g>
    </g>
    <g id="line2d_61">
     <path d="M 344.765625 157.320938 
L 364.765625 157.320938 
" style="fill:none;stroke:#1f77b4;stroke-dasharray:1.5,2.475;stroke-dashoffset:0;stroke-width:1.5;"/>
    </g>
    <g id="line2d_62"/>
    <g id="text_28">
     <!-- 9 -->
     <g transform="translate(372.765625 160.820938)scale(0.1 -0.1)">
      <use xlink:href="#DejaVuSans-57"/>
     </g>
    </g>
    <g id="line2d_63">
     <path d="M 344.765625 171.999063 
L 364.765625 171.999063 
" style="fill:none;stroke:#ff7f0e;stroke-dasharray:1.5,2.475;stroke-dashoffset:0;stroke-width:1.5;"/>
    </g>
    <g id="line2d_64"/>
    <g id="text_29">
     <!-- 9 -->
     <g transform="translate(372.765625 175.499063)scale(0.1 -0.1)">
      <use xlink:href="#DejaVuSans-57"/>
     </g>
    </g>
    <g id="line2d_65">
     <path d="M 344.765625 186.677188 
L 364.765625 186.677188 
" style="fill:none;stroke:#2ca02c;stroke-dasharray:1.5,2.475;stroke-dashoffset:0;stroke-width:1.5;"/>
    </g>
    <g id="line2d_66"/>
    <g id="text_30">
     <!-- 9 -->
     <g transform="translate(372.765625 190.177188)scale(0.1 -0.1)">
      <use xlink:href="#DejaVuSans-57"/>
     </g>
    </g>
    <g id="line2d_67">
     <path d="M 344.765625 201.355313 
L 364.765625 201.355313 
" style="fill:none;stroke:#d62728;stroke-dasharray:1.5,2.475;stroke-dashoffset:0;stroke-width:1.5;"/>
    </g>
    <g id="line2d_68"/>
    <g id="text_31">
     <!-- 9 -->
     <g transform="translate(372.765625 204.855313)scale(0.1 -0.1)">
      <use xlink:href="#DejaVuSans-57"/>
     </g>
    </g>
    <g id="line2d_69">
     <path d="M 344.765625 216.033438 
L 364.765625 216.033438 
" style="fill:none;stroke:#9467bd;stroke-dasharray:1.5,2.475;stroke-dashoffset:0;stroke-width:1.5;"/>
    </g>
    <g id="line2d_70"/>
    <g id="text_32">
     <!-- 9 -->
     <g transform="translate(372.765625 219.533438)scale(0.1 -0.1)">
      <use xlink:href="#DejaVuSans-57"/>
     </g>
    </g>
    <g id="line2d_71">
     <path d="M 344.765625 230.711563 
L 364.765625 230.711563 
" style="fill:none;stroke:#8c564b;stroke-dasharray:1.5,2.475;stroke-dashoffset:0;stroke-width:1.5;"/>
    </g>
    <g id="line2d_72"/>
    <g id="text_33">
     <!-- 9 -->
     <g transform="translate(372.765625 234.211563)scale(0.1 -0.1)">
      <use xlink:href="#DejaVuSans-57"/>
     </g>
    </g>
    <g id="line2d_73">
     <path d="M 344.765625 245.389688 
L 364.765625 245.389688 
" style="fill:none;stroke:#e377c2;stroke-dasharray:1.5,2.475;stroke-dashoffset:0;stroke-width:1.5;"/>
    </g>
    <g id="line2d_74"/>
    <g id="text_34">
     <!-- 9 -->
     <g transform="translate(372.765625 248.889688)scale(0.1 -0.1)">
      <use xlink:href="#DejaVuSans-57"/>
     </g>
    </g>
    <g id="line2d_75">
     <path d="M 344.765625 260.067813 
L 364.765625 260.067813 
" style="fill:none;stroke:#7f7f7f;stroke-dasharray:1.5,2.475;stroke-dashoffset:0;stroke-width:1.5;"/>
    </g>
    <g id="line2d_76"/>
    <g id="text_35">
     <!-- 9 -->
     <g transform="translate(372.765625 263.567813)scale(0.1 -0.1)">
      <use xlink:href="#DejaVuSans-57"/>
     </g>
    </g>
    <g id="line2d_77">
     <path d="M 344.765625 274.745938 
L 364.765625 274.745938 
" style="fill:none;stroke:#bcbd22;stroke-dasharray:1.5,2.475;stroke-dashoffset:0;stroke-width:1.5;"/>
    </g>
    <g id="line2d_78"/>
    <g id="text_36">
     <!-- 9 -->
     <g transform="translate(372.765625 278.245938)scale(0.1 -0.1)">
      <use xlink:href="#DejaVuSans-57"/>
     </g>
    </g>
    <g id="line2d_79">
     <path d="M 344.765625 289.424062 
L 364.765625 289.424062 
" style="fill:none;stroke:#17becf;stroke-dasharray:1.5,2.475;stroke-dashoffset:0;stroke-width:1.5;"/>
    </g>
    <g id="line2d_80"/>
    <g id="text_37">
     <!-- 9 -->
     <g transform="translate(372.765625 292.924062)scale(0.1 -0.1)">
      <use xlink:href="#DejaVuSans-57"/>
     </g>
    </g>
    <g id="line2d_81">
     <path d="M 344.765625 304.102188 
L 364.765625 304.102188 
" style="fill:none;stroke:#1f77b4;stroke-dasharray:1.5,2.475;stroke-dashoffset:0;stroke-width:1.5;"/>
    </g>
    <g id="line2d_82"/>
    <g id="text_38">
     <!-- 9 -->
     <g transform="translate(372.765625 307.602188)scale(0.1 -0.1)">
      <use xlink:href="#DejaVuSans-57"/>
     </g>
    </g>
    <g id="line2d_83">
     <path d="M 344.765625 318.780312 
L 364.765625 318.780312 
" style="fill:none;stroke:#ff7f0e;stroke-dasharray:1.5,2.475;stroke-dashoffset:0;stroke-width:1.5;"/>
    </g>
    <g id="line2d_84"/>
    <g id="text_39">
     <!-- 9 -->
     <g transform="translate(372.765625 322.280312)scale(0.1 -0.1)">
      <use xlink:href="#DejaVuSans-57"/>
     </g>
    </g>
   </g>
  </g>
 </g>
 <defs>
  <clipPath id="p6226501e5a">
   <rect height="326.16" width="334.8" x="53.328125" y="7.2"/>
  </clipPath>
 </defs>
</svg>
